solid OpenSCAD_Model
  facet normal -1 0 0
    outer loop
      vertex -39.25 -14.03 0
      vertex -39.25 -14.03 1
      vertex -39.25 28.25 0
    endloop
  endfacet
  facet normal -1 0 0
    outer loop
      vertex -39.25 28.25 0
      vertex -39.25 -14.03 1
      vertex -39.25 28.25 1
    endloop
  endfacet
  facet normal -0.193952 -0.981011 0
    outer loop
      vertex -39.25 -14.03 1
      vertex -39.25 -14.03 0
      vertex -36.3951 -14.5945 0
    endloop
  endfacet
  facet normal -0.193952 -0.981011 0
    outer loop
      vertex -36.3951 -14.5945 1
      vertex -39.25 -14.03 1
      vertex -36.3951 -14.5945 0
    endloop
  endfacet
  facet normal 0 0 -1
    outer loop
      vertex -39.25 -14.03 0
      vertex -39.25 28.25 0
      vertex -36.3951 -14.5945 0
    endloop
  endfacet
  facet normal 0 0 -1
    outer loop
      vertex -36.3951 -14.5945 0
      vertex -39.25 28.25 0
      vertex -36.3951 27.6855 0
    endloop
  endfacet
  facet normal 0 0 -1
    outer loop
      vertex -36.3951 -14.5945 0
      vertex -36.3951 27.6855 0
      vertex -33.3581 27.1448 0
    endloop
  endfacet
  facet normal 0 0 -1
    outer loop
      vertex -33.3581 27.1448 0
      vertex -29.7203 26.5781 0
      vertex -36.3951 -14.5945 0
    endloop
  endfacet
  facet normal 0 0 -1
    outer loop
      vertex -29.7203 26.5781 0
      vertex -25.8363 26.0955 0
      vertex -36.3951 -14.5945 0
    endloop
  endfacet
  facet normal 0 0 -1
    outer loop
      vertex -25.8363 26.0955 0
      vertex -22.0605 25.8065 0
      vertex -36.3951 -14.5945 0
    endloop
  endfacet
  facet normal 0 0 -1
    outer loop
      vertex -22.0605 25.8065 0
      vertex -20.3237 25.7693 0
      vertex -36.3951 -14.5945 0
    endloop
  endfacet
  facet normal 0 0 -1
    outer loop
      vertex -20.3237 25.7693 0
      vertex -18.7469 25.8215 0
      vertex -36.3951 -14.5945 0
    endloop
  endfacet
  facet normal 0 0 -1
    outer loop
      vertex -18.7469 25.8215 0
      vertex -17.3742 25.9773 0
      vertex -36.3951 -14.5945 0
    endloop
  endfacet
  facet normal 0 0 -1
    outer loop
      vertex -17.3742 25.9773 0
      vertex -16.2501 26.2499 0
      vertex -36.3951 -14.5945 0
    endloop
  endfacet
  facet normal 0 0 -1
    outer loop
      vertex -16.2501 26.2499 0
      vertex -15.4545 26.8287 0
      vertex -36.3951 -14.5945 0
    endloop
  endfacet
  facet normal 0 0 -1
    outer loop
      vertex -15.4545 26.8287 0
      vertex -14.8511 27.383 0
      vertex -36.3951 -14.5945 0
    endloop
  endfacet
  facet normal 0 0 -1
    outer loop
      vertex -14.8511 27.383 0
      vertex -14.4125 27.9119 0
      vertex -36.3951 -14.5945 0
    endloop
  endfacet
  facet normal 0 0 -1
    outer loop
      vertex -14.4125 27.9119 0
      vertex -14.112 28.4151 0
      vertex -36.3951 -14.5945 0
    endloop
  endfacet
  facet normal 0 0 -1
    outer loop
      vertex -14.1012 31.6217 0
      vertex -14.9468 33.1003 0
      vertex -15.4085 33.9345 0
    endloop
  endfacet
  facet normal 0 0 -1
    outer loop
      vertex -14.1012 31.6217 0
      vertex -15.4085 33.9345 0
      vertex -15.8188 34.8802 0
    endloop
  endfacet
  facet normal 0 0 -1
    outer loop
      vertex -14.1012 31.6217 0
      vertex -15.8188 34.8802 0
      vertex -16.1188 35.9733 0
    endloop
  endfacet
  facet normal 0 0 -1
    outer loop
      vertex -14.1012 31.6217 0
      vertex -16.1188 35.9733 0
      vertex -16.2501 37.2501 0
    endloop
  endfacet
  facet normal 0 0 -1
    outer loop
      vertex -14.1012 31.6217 0
      vertex -16.2501 37.2501 0
      vertex -16.1197 38.482 0
    endloop
  endfacet
  facet normal 0 0 -1
    outer loop
      vertex -14.1012 31.6217 0
      vertex -16.1197 38.482 0
      vertex -13.8345 30.9054 0
    endloop
  endfacet
  facet normal 0 0 -1
    outer loop
      vertex -13.8345 30.9054 0
      vertex -16.1197 38.482 0
      vertex -15.7009 39.56 0
    endloop
  endfacet
  facet normal 0 0 -1
    outer loop
      vertex -13.8345 30.9054 0
      vertex -15.7009 39.56 0
      vertex -15.0303 40.4948 0
    endloop
  endfacet
  facet normal 0 0 -1
    outer loop
      vertex -13.8345 30.9054 0
      vertex -15.0303 40.4948 0
      vertex -14.1441 41.2963 0
    endloop
  endfacet
  facet normal 0 0 -1
    outer loop
      vertex -13.8345 30.9054 0
      vertex -14.1441 41.2963 0
      vertex -13.7499 30.1561 0
    endloop
  endfacet
  facet normal 0 0 -1
    outer loop
      vertex -13.7499 30.1561 0
      vertex -14.1441 41.2963 0
      vertex -13.079 41.9747 0
    endloop
  endfacet
  facet normal 0 0 -1
    outer loop
      vertex -13.7499 30.1561 0
      vertex -13.079 41.9747 0
      vertex -11.8714 42.5403 0
    endloop
  endfacet
  facet normal 0 0 -1
    outer loop
      vertex -13.7499 30.1561 0
      vertex -11.8714 42.5403 0
      vertex -13.817 29.3411 0
    endloop
  endfacet
  facet normal 0 0 -1
    outer loop
      vertex -13.817 29.3411 0
      vertex -11.8714 42.5403 0
      vertex -10.5582 43.0034 0
    endloop
  endfacet
  facet normal 0 0 -1
    outer loop
      vertex -13.817 29.3411 0
      vertex -10.5582 43.0034 0
      vertex -9.17561 43.3746 0
    endloop
  endfacet
  facet normal 0 0 -1
    outer loop
      vertex -13.817 29.3411 0
      vertex -9.17561 43.3746 0
      vertex -14.112 28.4151 0
    endloop
  endfacet
  facet normal 0 0 -1
    outer loop
      vertex -14.112 28.4151 0
      vertex -9.17561 43.3746 0
      vertex -6.34802 43.8806 0
    endloop
  endfacet
  facet normal 0 0 -1
    outer loop
      vertex -14.112 28.4151 0
      vertex -6.34802 43.8806 0
      vertex -3.68159 44.1405 0
    endloop
  endfacet
  facet normal 0 0 -1
    outer loop
      vertex -14.112 28.4151 0
      vertex -3.68159 44.1405 0
      vertex -36.3951 -14.5945 0
    endloop
  endfacet
  facet normal 0 0 -1
    outer loop
      vertex -36.3951 -14.5945 0
      vertex -3.68159 44.1405 0
      vertex -1.46812 44.2362 0
    endloop
  endfacet
  facet normal 0 0 -1
    outer loop
      vertex -36.3951 -14.5945 0
      vertex -1.46812 44.2362 0
      vertex 0 44.25 0
    endloop
  endfacet
  facet normal 0 0 -1
    outer loop
      vertex -36.3951 -14.5945 0
      vertex 0 44.25 0
      vertex 1.46219 44.2351 0
    endloop
  endfacet
  facet normal 0 0 -1
    outer loop
      vertex -36.3951 -14.5945 0
      vertex 1.46219 44.2351 0
      vertex 3.66127 44.1363 0
    endloop
  endfacet
  facet normal 0 0 -1
    outer loop
      vertex -36.3951 -14.5945 0
      vertex 3.66127 44.1363 0
      vertex 6.30964 43.8727 0
    endloop
  endfacet
  facet normal 0 0 -1
    outer loop
      vertex -36.3951 -14.5945 0
      vertex 6.30964 43.8727 0
      vertex 9.12086 43.3636 0
    endloop
  endfacet
  facet normal 0 0 -1
    outer loop
      vertex -36.3951 -14.5945 0
      vertex 9.12086 43.3636 0
      vertex 10.4978 42.9916 0
    endloop
  endfacet
  facet normal 0 0 -1
    outer loop
      vertex -36.3951 -14.5945 0
      vertex 10.4978 42.9916 0
      vertex 11.8076 42.5276 0
    endloop
  endfacet
  facet normal 0 0 -1
    outer loop
      vertex -36.3951 -14.5945 0
      vertex 11.8076 42.5276 0
      vertex 13.0144 41.9618 0
    endloop
  endfacet
  facet normal 0 0 -1
    outer loop
      vertex -36.3951 -14.5945 0
      vertex 13.0144 41.9618 0
      vertex 14.0826 41.2841 0
    endloop
  endfacet
  facet normal 0 0 -1
    outer loop
      vertex -36.3951 -14.5945 0
      vertex 14.0826 41.2841 0
      vertex 14.9761 40.484 0
    endloop
  endfacet
  facet normal 0 0 -1
    outer loop
      vertex -36.3951 -14.5945 0
      vertex 14.9761 40.484 0
      vertex 15.6591 39.5519 0
    endloop
  endfacet
  facet normal 0 0 -1
    outer loop
      vertex -36.3951 -14.5945 0
      vertex 15.6591 39.5519 0
      vertex 16.0957 38.4772 0
    endloop
  endfacet
  facet normal 0 0 -1
    outer loop
      vertex -36.3951 -14.5945 0
      vertex 16.0957 38.4772 0
      vertex 16.2501 37.2501 0
    endloop
  endfacet
  facet normal 0 0 -1
    outer loop
      vertex -36.3951 -14.5945 0
      vertex 16.2501 37.2501 0
      vertex 16.1485 36.0142 0
    endloop
  endfacet
  facet normal 0 0 -1
    outer loop
      vertex -36.3951 -14.5945 0
      vertex 16.1485 36.0142 0
      vertex 15.8778 34.9372 0
    endloop
  endfacet
  facet normal 0 0 -1
    outer loop
      vertex -36.3951 -14.5945 0
      vertex 15.8778 34.9372 0
      vertex 15.4926 33.9904 0
    endloop
  endfacet
  facet normal 0 0 -1
    outer loop
      vertex -36.3951 -14.5945 0
      vertex 15.4926 33.9904 0
      vertex 15.047 33.1454 0
    endloop
  endfacet
  facet normal 0 0 -1
    outer loop
      vertex -36.3951 -14.5945 0
      vertex 15.047 33.1454 0
      vertex 14.1927 31.6468 0
    endloop
  endfacet
  facet normal 0 0 -1
    outer loop
      vertex -36.3951 -14.5945 0
      vertex 14.1927 31.6468 0
      vertex 13.8927 30.9362 0
    endloop
  endfacet
  facet normal 0 0 -1
    outer loop
      vertex 13.8927 30.9362 0
      vertex 13.7499 30.2134 0
      vertex -36.3951 -14.5945 0
    endloop
  endfacet
  facet normal 0 0 -1
    outer loop
      vertex 13.7499 30.2134 0
      vertex 13.7699 29.3588 0
      vertex -36.3951 -14.5945 0
    endloop
  endfacet
  facet normal 0 0 -1
    outer loop
      vertex 13.7699 29.3588 0
      vertex 13.8692 28.8929 0
      vertex -36.3951 -14.5945 0
    endloop
  endfacet
  facet normal 0 0 -1
    outer loop
      vertex 13.8692 28.8929 0
      vertex 14.0612 28.4035 0
      vertex -36.3951 -14.5945 0
    endloop
  endfacet
  facet normal 0 0 -1
    outer loop
      vertex 14.0612 28.4035 0
      vertex 14.3705 27.8927 0
      vertex -36.3951 -14.5945 0
    endloop
  endfacet
  facet normal 0 0 -1
    outer loop
      vertex 14.3705 27.8927 0
      vertex 14.8217 27.3621 0
      vertex -36.3951 -14.5945 0
    endloop
  endfacet
  facet normal 0 0 -1
    outer loop
      vertex 14.8217 27.3621 0
      vertex 15.4401 26.814 0
      vertex -36.3951 -14.5945 0
    endloop
  endfacet
  facet normal 0 0 -1
    outer loop
      vertex 15.4401 26.814 0
      vertex 16.2501 26.2499 0
      vertex -36.3951 -14.5945 0
    endloop
  endfacet
  facet normal 0 0 -1
    outer loop
      vertex 16.2501 26.2499 0
      vertex 17.384 25.9736 0
      vertex -36.3951 -14.5945 0
    endloop
  endfacet
  facet normal 0 0 -1
    outer loop
      vertex 17.384 25.9736 0
      vertex 18.7641 25.8153 0
      vertex -36.3951 -14.5945 0
    endloop
  endfacet
  facet normal 0 0 -1
    outer loop
      vertex 18.7641 25.8153 0
      vertex 20.346 25.7611 0
      vertex -36.3951 -14.5945 0
    endloop
  endfacet
  facet normal 0 0 -1
    outer loop
      vertex 20.346 25.7611 0
      vertex 22.0859 25.7975 0
      vertex -36.3951 -14.5945 0
    endloop
  endfacet
  facet normal 0 0 -1
    outer loop
      vertex 22.0859 25.7975 0
      vertex 25.8628 26.0859 0
      vertex -36.3951 -14.5945 0
    endloop
  endfacet
  facet normal 0 0 -1
    outer loop
      vertex 25.8628 26.0859 0
      vertex 29.7431 26.5699 0
      vertex -36.3951 -14.5945 0
    endloop
  endfacet
  facet normal 0 0 -1
    outer loop
      vertex -11.8714 0.260311 0
      vertex 33.3739 27.1392 0
      vertex -10.5582 0.723438 0
    endloop
  endfacet
  facet normal 0 0 -1
    outer loop
      vertex 14.0612 -13.8765 0
      vertex 39.25 28.25 0
      vertex 39.25 -14.03 0
    endloop
  endfacet
  facet normal 0 0 -1
    outer loop
      vertex 14.3705 -14.3873 0
      vertex 39.25 -14.03 0
      vertex 36.4036 -14.5976 0
    endloop
  endfacet
  facet normal 0 0 -1
    outer loop
      vertex 14.8217 -14.9179 0
      vertex 36.4036 -14.5976 0
      vertex 33.3739 -15.1408 0
    endloop
  endfacet
  facet normal 0 0 -1
    outer loop
      vertex 15.4401 -15.466 0
      vertex 33.3739 -15.1408 0
      vertex 29.7431 -15.7101 0
    endloop
  endfacet
  facet normal 0 0 -1
    outer loop
      vertex -15.4545 -15.4513 0
      vertex -36.3951 -14.5945 0
      vertex -14.8511 -14.897 0
    endloop
  endfacet
  facet normal 0 0 -1
    outer loop
      vertex 17.384 -16.3064 0
      vertex 25.8628 -16.1941 0
      vertex 22.0859 -16.4825 0
    endloop
  endfacet
  facet normal 0 0 -1
    outer loop
      vertex 18.7641 -16.4647 0
      vertex 22.0859 -16.4825 0
      vertex 20.346 -16.5189 0
    endloop
  endfacet
  facet normal 0 0 -1
    outer loop
      vertex 15.4401 -15.466 0
      vertex 25.8628 -16.1941 0
      vertex 16.2501 -16.0301 0
    endloop
  endfacet
  facet normal 0 0 -1
    outer loop
      vertex 16.2501 -16.0301 0
      vertex 25.8628 -16.1941 0
      vertex 17.384 -16.3064 0
    endloop
  endfacet
  facet normal 0 0 -1
    outer loop
      vertex 15.4401 -15.466 0
      vertex 29.7431 -15.7101 0
      vertex 25.8628 -16.1941 0
    endloop
  endfacet
  facet normal 0 0 -1
    outer loop
      vertex 14.8217 -14.9179 0
      vertex 33.3739 -15.1408 0
      vertex 15.4401 -15.466 0
    endloop
  endfacet
  facet normal 0 0 -1
    outer loop
      vertex 14.3705 -14.3873 0
      vertex 36.4036 -14.5976 0
      vertex 14.8217 -14.9179 0
    endloop
  endfacet
  facet normal 0 0 -1
    outer loop
      vertex 14.0612 -13.8765 0
      vertex 39.25 -14.03 0
      vertex 14.3705 -14.3873 0
    endloop
  endfacet
  facet normal 0 0 -1
    outer loop
      vertex 13.8692 -13.3871 0
      vertex 39.25 28.25 0
      vertex 14.0612 -13.8765 0
    endloop
  endfacet
  facet normal 0 0 -1
    outer loop
      vertex -9.17561 1.09456 0
      vertex 39.25 28.25 0
      vertex -6.34802 1.60058 0
    endloop
  endfacet
  facet normal 0 0 -1
    outer loop
      vertex 13.7699 -12.9212 0
      vertex 39.25 28.25 0
      vertex 13.8692 -13.3871 0
    endloop
  endfacet
  facet normal 0 0 -1
    outer loop
      vertex 13.7499 -12.0666 0
      vertex 39.25 28.25 0
      vertex 13.7699 -12.9212 0
    endloop
  endfacet
  facet normal 0 0 -1
    outer loop
      vertex 13.8927 -11.3438 0
      vertex 39.25 28.25 0
      vertex 13.7499 -12.0666 0
    endloop
  endfacet
  facet normal 0 0 -1
    outer loop
      vertex 14.1927 -10.6332 0
      vertex 39.25 28.25 0
      vertex 13.8927 -11.3438 0
    endloop
  endfacet
  facet normal 0 0 -1
    outer loop
      vertex 15.047 -9.13458 0
      vertex 39.25 28.25 0
      vertex 14.1927 -10.6332 0
    endloop
  endfacet
  facet normal 0 0 -1
    outer loop
      vertex 15.4926 -8.28961 0
      vertex 39.25 28.25 0
      vertex 15.047 -9.13458 0
    endloop
  endfacet
  facet normal 0 0 -1
    outer loop
      vertex 15.8778 -7.34276 0
      vertex 39.25 28.25 0
      vertex 15.4926 -8.28961 0
    endloop
  endfacet
  facet normal 0 0 -1
    outer loop
      vertex 16.1485 -6.2658 0
      vertex 39.25 28.25 0
      vertex 15.8778 -7.34276 0
    endloop
  endfacet
  facet normal 0 0 -1
    outer loop
      vertex 16.2501 -5.02994 0
      vertex 39.25 28.25 0
      vertex 16.1485 -6.2658 0
    endloop
  endfacet
  facet normal 0 0 -1
    outer loop
      vertex 16.0957 -3.80284 0
      vertex 39.25 28.25 0
      vertex 16.2501 -5.02994 0
    endloop
  endfacet
  facet normal 0 0 -1
    outer loop
      vertex 15.6591 -2.72814 0
      vertex 39.25 28.25 0
      vertex 16.0957 -3.80284 0
    endloop
  endfacet
  facet normal 0 0 -1
    outer loop
      vertex 14.9761 -1.79596 0
      vertex 39.25 28.25 0
      vertex 15.6591 -2.72814 0
    endloop
  endfacet
  facet normal 0 0 -1
    outer loop
      vertex 14.0826 -0.99586 0
      vertex 39.25 28.25 0
      vertex 14.9761 -1.79596 0
    endloop
  endfacet
  facet normal 0 0 -1
    outer loop
      vertex 13.0144 -0.318244 0
      vertex 39.25 28.25 0
      vertex 14.0826 -0.99586 0
    endloop
  endfacet
  facet normal 0 0 -1
    outer loop
      vertex 11.8076 0.247611 0
      vertex 39.25 28.25 0
      vertex 13.0144 -0.318244 0
    endloop
  endfacet
  facet normal 0 0 -1
    outer loop
      vertex 10.4978 0.711584 0
      vertex 39.25 28.25 0
      vertex 11.8076 0.247611 0
    endloop
  endfacet
  facet normal 0 0 -1
    outer loop
      vertex 9.12086 1.08355 0
      vertex 39.25 28.25 0
      vertex 10.4978 0.711584 0
    endloop
  endfacet
  facet normal 0 0 -1
    outer loop
      vertex 6.30964 1.59268 0
      vertex 39.25 28.25 0
      vertex 9.12086 1.08355 0
    endloop
  endfacet
  facet normal 0 0 -1
    outer loop
      vertex 3.66127 1.85628 0
      vertex 39.25 28.25 0
      vertex 6.30964 1.59268 0
    endloop
  endfacet
  facet normal 0 0 -1
    outer loop
      vertex 1.46219 1.95506 0
      vertex 39.25 28.25 0
      vertex 3.66127 1.85628 0
    endloop
  endfacet
  facet normal 0 0 -1
    outer loop
      vertex 0 1.97001 0
      vertex 39.25 28.25 0
      vertex 1.46219 1.95506 0
    endloop
  endfacet
  facet normal 0 0 -1
    outer loop
      vertex -1.46812 1.95618 0
      vertex 39.25 28.25 0
      vertex 0 1.97001 0
    endloop
  endfacet
  facet normal 0 0 -1
    outer loop
      vertex -3.68159 1.86051 0
      vertex 39.25 28.25 0
      vertex -1.46812 1.95618 0
    endloop
  endfacet
  facet normal 0 0 -1
    outer loop
      vertex -6.34802 1.60058 0
      vertex 39.25 28.25 0
      vertex -3.68159 1.86051 0
    endloop
  endfacet
  facet normal 0 0 -1
    outer loop
      vertex 36.4036 27.6824 0
      vertex 39.25 28.25 0
      vertex -9.17561 1.09456 0
    endloop
  endfacet
  facet normal 0 0 -1
    outer loop
      vertex 33.3739 27.1392 0
      vertex 36.4036 27.6824 0
      vertex -10.5582 0.723438 0
    endloop
  endfacet
  facet normal 0 0 -1
    outer loop
      vertex 29.7431 26.5699 0
      vertex 33.3739 27.1392 0
      vertex -11.8714 0.260311 0
    endloop
  endfacet
  facet normal 0 0 -1
    outer loop
      vertex 29.7431 26.5699 0
      vertex -11.8714 0.260311 0
      vertex -13.079 -0.305262 0
    endloop
  endfacet
  facet normal 0 0 -1
    outer loop
      vertex 29.7431 26.5699 0
      vertex -13.079 -0.305262 0
      vertex -36.3951 -14.5945 0
    endloop
  endfacet
  facet normal 0 0 -1
    outer loop
      vertex -13.079 -0.305262 0
      vertex -14.1441 -0.983724 0
      vertex -36.3951 -14.5945 0
    endloop
  endfacet
  facet normal 0 0 -1
    outer loop
      vertex -15.0303 -1.78524 0
      vertex -36.3951 -14.5945 0
      vertex -14.1441 -0.983724 0
    endloop
  endfacet
  facet normal 0 0 -1
    outer loop
      vertex -15.7009 -2.71996 0
      vertex -36.3951 -14.5945 0
      vertex -15.0303 -1.78524 0
    endloop
  endfacet
  facet normal 0 0 -1
    outer loop
      vertex -10.5582 0.723438 0
      vertex 36.4036 27.6824 0
      vertex -9.17561 1.09456 0
    endloop
  endfacet
  facet normal 0 0 -1
    outer loop
      vertex -16.1197 -3.79804 0
      vertex -36.3951 -14.5945 0
      vertex -15.7009 -2.71996 0
    endloop
  endfacet
  facet normal 0 0 -1
    outer loop
      vertex -16.2501 -5.02994 0
      vertex -36.3951 -14.5945 0
      vertex -16.1197 -3.79804 0
    endloop
  endfacet
  facet normal 0 0 -1
    outer loop
      vertex -16.1188 -6.30672 0
      vertex -36.3951 -14.5945 0
      vertex -16.2501 -5.02994 0
    endloop
  endfacet
  facet normal 0 0 -1
    outer loop
      vertex -15.8188 -7.39976 0
      vertex -36.3951 -14.5945 0
      vertex -16.1188 -6.30672 0
    endloop
  endfacet
  facet normal 0 0 -1
    outer loop
      vertex -15.4085 -8.34549 0
      vertex -36.3951 -14.5945 0
      vertex -15.8188 -7.39976 0
    endloop
  endfacet
  facet normal 0 0 -1
    outer loop
      vertex -14.9468 -9.17974 0
      vertex -36.3951 -14.5945 0
      vertex -15.4085 -8.34549 0
    endloop
  endfacet
  facet normal 0 0 -1
    outer loop
      vertex -14.1012 -10.6583 0
      vertex -36.3951 -14.5945 0
      vertex -14.9468 -9.17974 0
    endloop
  endfacet
  facet normal 0 0 -1
    outer loop
      vertex -13.8345 -11.3746 0
      vertex -36.3951 -14.5945 0
      vertex -14.1012 -10.6583 0
    endloop
  endfacet
  facet normal 0 0 -1
    outer loop
      vertex -13.7499 -12.1239 0
      vertex -36.3951 -14.5945 0
      vertex -13.8345 -11.3746 0
    endloop
  endfacet
  facet normal 0 0 -1
    outer loop
      vertex -13.817 -12.9389 0
      vertex -36.3951 -14.5945 0
      vertex -13.7499 -12.1239 0
    endloop
  endfacet
  facet normal 0 0 -1
    outer loop
      vertex -14.112 -13.8649 0
      vertex -36.3951 -14.5945 0
      vertex -13.817 -12.9389 0
    endloop
  endfacet
  facet normal 0 0 -1
    outer loop
      vertex -14.4125 -14.3681 0
      vertex -36.3951 -14.5945 0
      vertex -14.112 -13.8649 0
    endloop
  endfacet
  facet normal 0 0 -1
    outer loop
      vertex -14.8511 -14.897 0
      vertex -36.3951 -14.5945 0
      vertex -14.4125 -14.3681 0
    endloop
  endfacet
  facet normal 0 0 -1
    outer loop
      vertex -36.3951 -14.5945 0
      vertex -15.4545 -15.4513 0
      vertex -16.2501 -16.0301 0
    endloop
  endfacet
  facet normal 0 0 -1
    outer loop
      vertex -36.3951 -14.5945 0
      vertex -16.2501 -16.0301 0
      vertex -17.3742 -16.3027 0
    endloop
  endfacet
  facet normal 0 0 -1
    outer loop
      vertex -36.3951 -14.5945 0
      vertex -17.3742 -16.3027 0
      vertex -18.7469 -16.4585 0
    endloop
  endfacet
  facet normal 0 0 -1
    outer loop
      vertex -36.3951 -14.5945 0
      vertex -18.7469 -16.4585 0
      vertex -20.3237 -16.5107 0
    endloop
  endfacet
  facet normal 0 0 -1
    outer loop
      vertex -36.3951 -14.5945 0
      vertex -20.3237 -16.5107 0
      vertex -22.0605 -16.4735 0
    endloop
  endfacet
  facet normal 0 0 -1
    outer loop
      vertex -36.3951 -14.5945 0
      vertex -22.0605 -16.4735 0
      vertex -25.8363 -16.1845 0
    endloop
  endfacet
  facet normal 0 0 -1
    outer loop
      vertex -36.3951 -14.5945 0
      vertex -25.8363 -16.1845 0
      vertex -29.7203 -15.7019 0
    endloop
  endfacet
  facet normal 0 0 -1
    outer loop
      vertex -36.3951 -14.5945 0
      vertex -29.7203 -15.7019 0
      vertex -33.3581 -15.1352 0
    endloop
  endfacet
  facet normal 0 0 -1
    outer loop
      vertex 17.384 -16.3064 0
      vertex 22.0859 -16.4825 0
      vertex 18.7641 -16.4647 0
    endloop
  endfacet
  facet normal 0.193952 0.981011 0
    outer loop
      vertex -36.3951 27.6855 1
      vertex -36.3951 27.6855 0
      vertex -39.25 28.25 1
    endloop
  endfacet
  facet normal 0.193952 0.981011 0
    outer loop
      vertex -39.25 28.25 1
      vertex -36.3951 27.6855 0
      vertex -39.25 28.25 0
    endloop
  endfacet
  facet normal 0 0 1
    outer loop
      vertex -39.25 28.25 1
      vertex -39.25 -14.03 1
      vertex -36.3951 -14.5945 1
    endloop
  endfacet
  facet normal 0 0 1
    outer loop
      vertex -29.7203 -15.7019 1
      vertex -39.25 28.25 1
      vertex -33.3581 -15.1352 1
    endloop
  endfacet
  facet normal 0 0 1
    outer loop
      vertex -33.3581 -15.1352 1
      vertex -39.25 28.25 1
      vertex -36.3951 -14.5945 1
    endloop
  endfacet
  facet normal 0 0 1
    outer loop
      vertex -25.8363 -16.1845 1
      vertex -39.25 28.25 1
      vertex -29.7203 -15.7019 1
    endloop
  endfacet
  facet normal 0 0 1
    outer loop
      vertex -22.0605 -16.4735 1
      vertex -39.25 28.25 1
      vertex -25.8363 -16.1845 1
    endloop
  endfacet
  facet normal 0 0 1
    outer loop
      vertex -20.3237 -16.5107 1
      vertex -39.25 28.25 1
      vertex -22.0605 -16.4735 1
    endloop
  endfacet
  facet normal 0 0 1
    outer loop
      vertex -18.7469 -16.4585 1
      vertex -39.25 28.25 1
      vertex -20.3237 -16.5107 1
    endloop
  endfacet
  facet normal 0 0 1
    outer loop
      vertex -17.3742 -16.3027 1
      vertex -39.25 28.25 1
      vertex -18.7469 -16.4585 1
    endloop
  endfacet
  facet normal 0 0 1
    outer loop
      vertex -16.2501 -16.0301 1
      vertex -39.25 28.25 1
      vertex -17.3742 -16.3027 1
    endloop
  endfacet
  facet normal 0 0 1
    outer loop
      vertex -15.4545 -15.4513 1
      vertex -39.25 28.25 1
      vertex -16.2501 -16.0301 1
    endloop
  endfacet
  facet normal 0 0 1
    outer loop
      vertex -14.8511 -14.897 1
      vertex -39.25 28.25 1
      vertex -15.4545 -15.4513 1
    endloop
  endfacet
  facet normal 0 0 1
    outer loop
      vertex -14.4125 -14.3681 1
      vertex -39.25 28.25 1
      vertex -14.8511 -14.897 1
    endloop
  endfacet
  facet normal 0 0 1
    outer loop
      vertex -14.112 -13.8649 1
      vertex -39.25 28.25 1
      vertex -14.4125 -14.3681 1
    endloop
  endfacet
  facet normal 0 0 1
    outer loop
      vertex -13.817 -12.9389 1
      vertex -39.25 28.25 1
      vertex -14.112 -13.8649 1
    endloop
  endfacet
  facet normal 0 0 1
    outer loop
      vertex -13.7499 -12.1239 1
      vertex -39.25 28.25 1
      vertex -13.817 -12.9389 1
    endloop
  endfacet
  facet normal 0 0 1
    outer loop
      vertex -13.8345 -11.3746 1
      vertex -39.25 28.25 1
      vertex -13.7499 -12.1239 1
    endloop
  endfacet
  facet normal 0 0 1
    outer loop
      vertex -14.1012 -10.6583 1
      vertex -39.25 28.25 1
      vertex -13.8345 -11.3746 1
    endloop
  endfacet
  facet normal 0 0 1
    outer loop
      vertex -14.9468 -9.17974 1
      vertex -39.25 28.25 1
      vertex -14.1012 -10.6583 1
    endloop
  endfacet
  facet normal 0 0 1
    outer loop
      vertex -15.4085 -8.34549 1
      vertex -39.25 28.25 1
      vertex -14.9468 -9.17974 1
    endloop
  endfacet
  facet normal 0 0 1
    outer loop
      vertex -15.8188 -7.39976 1
      vertex -39.25 28.25 1
      vertex -15.4085 -8.34549 1
    endloop
  endfacet
  facet normal 0 0 1
    outer loop
      vertex -16.1188 -6.30672 1
      vertex -39.25 28.25 1
      vertex -15.8188 -7.39976 1
    endloop
  endfacet
  facet normal 0 0 1
    outer loop
      vertex -16.2501 -5.02994 1
      vertex -39.25 28.25 1
      vertex -16.1188 -6.30672 1
    endloop
  endfacet
  facet normal 0 0 1
    outer loop
      vertex -16.1197 -3.79804 1
      vertex -39.25 28.25 1
      vertex -16.2501 -5.02994 1
    endloop
  endfacet
  facet normal 0 0 1
    outer loop
      vertex -15.7009 -2.71996 1
      vertex -39.25 28.25 1
      vertex -16.1197 -3.79804 1
    endloop
  endfacet
  facet normal 0 0 1
    outer loop
      vertex -15.0303 -1.78524 1
      vertex -39.25 28.25 1
      vertex -15.7009 -2.71996 1
    endloop
  endfacet
  facet normal 0 0 1
    outer loop
      vertex -14.1441 -0.983724 1
      vertex -39.25 28.25 1
      vertex -15.0303 -1.78524 1
    endloop
  endfacet
  facet normal 0 0 1
    outer loop
      vertex -13.079 -0.305262 1
      vertex -39.25 28.25 1
      vertex -14.1441 -0.983724 1
    endloop
  endfacet
  facet normal 0 0 1
    outer loop
      vertex -11.8714 0.260311 1
      vertex -39.25 28.25 1
      vertex -13.079 -0.305262 1
    endloop
  endfacet
  facet normal 0 0 1
    outer loop
      vertex -10.5582 0.723438 1
      vertex -39.25 28.25 1
      vertex -11.8714 0.260311 1
    endloop
  endfacet
  facet normal 0 0 1
    outer loop
      vertex -9.17561 1.09456 1
      vertex -39.25 28.25 1
      vertex -10.5582 0.723438 1
    endloop
  endfacet
  facet normal 0 0 1
    outer loop
      vertex -6.34802 1.60058 1
      vertex -39.25 28.25 1
      vertex -9.17561 1.09456 1
    endloop
  endfacet
  facet normal 0 0 1
    outer loop
      vertex -3.68159 1.86051 1
      vertex -39.25 28.25 1
      vertex -6.34802 1.60058 1
    endloop
  endfacet
  facet normal 0 0 1
    outer loop
      vertex -1.46812 1.95618 1
      vertex -39.25 28.25 1
      vertex -3.68159 1.86051 1
    endloop
  endfacet
  facet normal 0 0 1
    outer loop
      vertex 0 1.97001 1
      vertex -39.25 28.25 1
      vertex -1.46812 1.95618 1
    endloop
  endfacet
  facet normal 0 0 1
    outer loop
      vertex 1.46219 1.95506 1
      vertex -39.25 28.25 1
      vertex 0 1.97001 1
    endloop
  endfacet
  facet normal 0 0 1
    outer loop
      vertex 3.66127 1.85628 1
      vertex -39.25 28.25 1
      vertex 1.46219 1.95506 1
    endloop
  endfacet
  facet normal 0 0 1
    outer loop
      vertex 6.30964 1.59268 1
      vertex -39.25 28.25 1
      vertex 3.66127 1.85628 1
    endloop
  endfacet
  facet normal 0 0 1
    outer loop
      vertex 9.12086 1.08355 1
      vertex -39.25 28.25 1
      vertex 6.30964 1.59268 1
    endloop
  endfacet
  facet normal 0 0 1
    outer loop
      vertex 10.4978 0.711584 1
      vertex -39.25 28.25 1
      vertex 9.12086 1.08355 1
    endloop
  endfacet
  facet normal 0 0 1
    outer loop
      vertex 11.8076 0.247611 1
      vertex -39.25 28.25 1
      vertex 10.4978 0.711584 1
    endloop
  endfacet
  facet normal 0 0 1
    outer loop
      vertex 13.0144 -0.318244 1
      vertex -39.25 28.25 1
      vertex 11.8076 0.247611 1
    endloop
  endfacet
  facet normal 0 0 1
    outer loop
      vertex 39.25 -14.03 1
      vertex -39.25 28.25 1
      vertex 13.0144 -0.318244 1
    endloop
  endfacet
  facet normal 0 0 1
    outer loop
      vertex 36.4036 -14.5976 1
      vertex 13.0144 -0.318244 1
      vertex 14.0826 -0.99586 1
    endloop
  endfacet
  facet normal 0 0 1
    outer loop
      vertex 33.3739 -15.1408 1
      vertex 14.0826 -0.99586 1
      vertex 14.9761 -1.79596 1
    endloop
  endfacet
  facet normal 0 0 1
    outer loop
      vertex 25.8628 -16.1941 1
      vertex 14.9761 -1.79596 1
      vertex 15.6591 -2.72814 1
    endloop
  endfacet
  facet normal 0 0 1
    outer loop
      vertex 22.0859 -16.4825 1
      vertex 15.6591 -2.72814 1
      vertex 16.0957 -3.80284 1
    endloop
  endfacet
  facet normal 0 0 1
    outer loop
      vertex 18.7641 -16.4647 1
      vertex 16.0957 -3.80284 1
      vertex 16.2501 -5.02994 1
    endloop
  endfacet
  facet normal 0 0 1
    outer loop
      vertex 15.4401 -15.466 1
      vertex 16.2501 -5.02994 1
      vertex 16.1485 -6.2658 1
    endloop
  endfacet
  facet normal 0 0 1
    outer loop
      vertex 14.3705 -14.3873 1
      vertex 16.1485 -6.2658 1
      vertex 15.8778 -7.34276 1
    endloop
  endfacet
  facet normal 0 0 1
    outer loop
      vertex 13.7699 -12.9212 1
      vertex 15.8778 -7.34276 1
      vertex 15.4926 -8.28961 1
    endloop
  endfacet
  facet normal 0 0 1
    outer loop
      vertex 13.8927 -11.3438 1
      vertex 15.4926 -8.28961 1
      vertex 15.047 -9.13458 1
    endloop
  endfacet
  facet normal 0 0 1
    outer loop
      vertex 13.8927 -11.3438 1
      vertex 15.047 -9.13458 1
      vertex 14.1927 -10.6332 1
    endloop
  endfacet
  facet normal 0 0 1
    outer loop
      vertex 13.7499 -12.0666 1
      vertex 15.4926 -8.28961 1
      vertex 13.8927 -11.3438 1
    endloop
  endfacet
  facet normal 0 0 1
    outer loop
      vertex 13.7699 -12.9212 1
      vertex 15.4926 -8.28961 1
      vertex 13.7499 -12.0666 1
    endloop
  endfacet
  facet normal 0 0 1
    outer loop
      vertex 13.8692 -13.3871 1
      vertex 15.8778 -7.34276 1
      vertex 13.7699 -12.9212 1
    endloop
  endfacet
  facet normal 0 0 1
    outer loop
      vertex 14.0612 -13.8765 1
      vertex 15.8778 -7.34276 1
      vertex 13.8692 -13.3871 1
    endloop
  endfacet
  facet normal 0 0 1
    outer loop
      vertex 14.3705 -14.3873 1
      vertex 15.8778 -7.34276 1
      vertex 14.0612 -13.8765 1
    endloop
  endfacet
  facet normal 0 0 1
    outer loop
      vertex 14.8217 -14.9179 1
      vertex 16.1485 -6.2658 1
      vertex 14.3705 -14.3873 1
    endloop
  endfacet
  facet normal 0 0 1
    outer loop
      vertex 15.4401 -15.466 1
      vertex 16.1485 -6.2658 1
      vertex 14.8217 -14.9179 1
    endloop
  endfacet
  facet normal 0 0 1
    outer loop
      vertex 16.2501 -16.0301 1
      vertex 16.2501 -5.02994 1
      vertex 15.4401 -15.466 1
    endloop
  endfacet
  facet normal 0 0 1
    outer loop
      vertex 17.384 -16.3064 1
      vertex 16.2501 -5.02994 1
      vertex 16.2501 -16.0301 1
    endloop
  endfacet
  facet normal 0 0 1
    outer loop
      vertex 18.7641 -16.4647 1
      vertex 16.2501 -5.02994 1
      vertex 17.384 -16.3064 1
    endloop
  endfacet
  facet normal 0 0 1
    outer loop
      vertex 20.346 -16.5189 1
      vertex 16.0957 -3.80284 1
      vertex 18.7641 -16.4647 1
    endloop
  endfacet
  facet normal 0 0 1
    outer loop
      vertex 22.0859 -16.4825 1
      vertex 16.0957 -3.80284 1
      vertex 20.346 -16.5189 1
    endloop
  endfacet
  facet normal 0 0 1
    outer loop
      vertex 25.8628 -16.1941 1
      vertex 15.6591 -2.72814 1
      vertex 22.0859 -16.4825 1
    endloop
  endfacet
  facet normal 0 0 1
    outer loop
      vertex 29.7431 -15.7101 1
      vertex 14.9761 -1.79596 1
      vertex 25.8628 -16.1941 1
    endloop
  endfacet
  facet normal 0 0 1
    outer loop
      vertex 33.3739 -15.1408 1
      vertex 14.9761 -1.79596 1
      vertex 29.7431 -15.7101 1
    endloop
  endfacet
  facet normal 0 0 1
    outer loop
      vertex 36.4036 -14.5976 1
      vertex 14.0826 -0.99586 1
      vertex 33.3739 -15.1408 1
    endloop
  endfacet
  facet normal 0 0 1
    outer loop
      vertex 39.25 -14.03 1
      vertex 13.0144 -0.318244 1
      vertex 36.4036 -14.5976 1
    endloop
  endfacet
  facet normal 0 0 1
    outer loop
      vertex -36.3951 27.6855 1
      vertex -39.25 28.25 1
      vertex 39.25 -14.03 1
    endloop
  endfacet
  facet normal 0 0 1
    outer loop
      vertex 39.25 28.25 1
      vertex 36.4036 27.6824 1
      vertex 39.25 -14.03 1
    endloop
  endfacet
  facet normal 0 0 1
    outer loop
      vertex 36.4036 27.6824 1
      vertex 33.3739 27.1392 1
      vertex 39.25 -14.03 1
    endloop
  endfacet
  facet normal 0 0 1
    outer loop
      vertex -16.1197 38.482 1
      vertex -16.2501 37.2501 1
      vertex 1.46219 44.2351 1
    endloop
  endfacet
  facet normal 0 0 1
    outer loop
      vertex 33.3739 27.1392 1
      vertex 29.7431 26.5699 1
      vertex 39.25 -14.03 1
    endloop
  endfacet
  facet normal 0 0 1
    outer loop
      vertex 29.7431 26.5699 1
      vertex 25.8628 26.0859 1
      vertex 39.25 -14.03 1
    endloop
  endfacet
  facet normal 0 0 1
    outer loop
      vertex 25.8628 26.0859 1
      vertex 22.0859 25.7975 1
      vertex 39.25 -14.03 1
    endloop
  endfacet
  facet normal 0 0 1
    outer loop
      vertex 22.0859 25.7975 1
      vertex 20.346 25.7611 1
      vertex 39.25 -14.03 1
    endloop
  endfacet
  facet normal 0 0 1
    outer loop
      vertex 20.346 25.7611 1
      vertex 18.7641 25.8153 1
      vertex 39.25 -14.03 1
    endloop
  endfacet
  facet normal 0 0 1
    outer loop
      vertex -13.079 41.9747 1
      vertex -14.1441 41.2963 1
      vertex -11.8714 42.5403 1
    endloop
  endfacet
  facet normal 0 0 1
    outer loop
      vertex -14.4125 27.9119 1
      vertex -14.8511 27.383 1
      vertex 15.4401 26.814 1
    endloop
  endfacet
  facet normal 0 0 1
    outer loop
      vertex -14.112 28.4151 1
      vertex 14.3705 27.8927 1
      vertex 14.0612 28.4035 1
    endloop
  endfacet
  facet normal 0 0 1
    outer loop
      vertex -14.112 28.4151 1
      vertex -14.4125 27.9119 1
      vertex 14.3705 27.8927 1
    endloop
  endfacet
  facet normal 0 0 1
    outer loop
      vertex -14.8511 27.383 1
      vertex -15.4545 26.8287 1
      vertex 18.7641 25.8153 1
    endloop
  endfacet
  facet normal 0 0 1
    outer loop
      vertex -13.817 29.3411 1
      vertex 13.7699 29.3588 1
      vertex 13.7499 30.2134 1
    endloop
  endfacet
  facet normal 0 0 1
    outer loop
      vertex -13.817 29.3411 1
      vertex 13.8692 28.8929 1
      vertex 13.7699 29.3588 1
    endloop
  endfacet
  facet normal 0 0 1
    outer loop
      vertex -13.7499 30.1561 1
      vertex 13.8927 30.9362 1
      vertex 14.1927 31.6468 1
    endloop
  endfacet
  facet normal 0 0 1
    outer loop
      vertex -13.8345 30.9054 1
      vertex -13.7499 30.1561 1
      vertex 15.047 33.1454 1
    endloop
  endfacet
  facet normal 0 0 1
    outer loop
      vertex -13.7499 30.1561 1
      vertex -13.817 29.3411 1
      vertex 13.8927 30.9362 1
    endloop
  endfacet
  facet normal 0 0 1
    outer loop
      vertex -14.1012 31.6217 1
      vertex 15.4926 33.9904 1
      vertex 15.8778 34.9372 1
    endloop
  endfacet
  facet normal 0 0 1
    outer loop
      vertex -14.1012 31.6217 1
      vertex -13.8345 30.9054 1
      vertex 15.4926 33.9904 1
    endloop
  endfacet
  facet normal 0 0 1
    outer loop
      vertex -13.817 29.3411 1
      vertex -14.112 28.4151 1
      vertex 13.8692 28.8929 1
    endloop
  endfacet
  facet normal 0 0 1
    outer loop
      vertex -14.9468 33.1003 1
      vertex 16.2501 37.2501 1
      vertex 16.0957 38.4772 1
    endloop
  endfacet
  facet normal 0 0 1
    outer loop
      vertex -14.9468 33.1003 1
      vertex 16.1485 36.0142 1
      vertex 16.2501 37.2501 1
    endloop
  endfacet
  facet normal 0 0 1
    outer loop
      vertex -15.4085 33.9345 1
      vertex 15.6591 39.5519 1
      vertex 14.9761 40.484 1
    endloop
  endfacet
  facet normal 0 0 1
    outer loop
      vertex -15.4085 33.9345 1
      vertex -14.9468 33.1003 1
      vertex 15.6591 39.5519 1
    endloop
  endfacet
  facet normal 0 0 1
    outer loop
      vertex -14.9468 33.1003 1
      vertex -14.1012 31.6217 1
      vertex 16.1485 36.0142 1
    endloop
  endfacet
  facet normal 0 0 1
    outer loop
      vertex -15.8188 34.8802 1
      vertex 13.0144 41.9618 1
      vertex 11.8076 42.5276 1
    endloop
  endfacet
  facet normal 0 0 1
    outer loop
      vertex -15.8188 34.8802 1
      vertex 14.0826 41.2841 1
      vertex 13.0144 41.9618 1
    endloop
  endfacet
  facet normal 0 0 1
    outer loop
      vertex -16.1188 35.9733 1
      vertex 10.4978 42.9916 1
      vertex 9.12086 43.3636 1
    endloop
  endfacet
  facet normal 0 0 1
    outer loop
      vertex -16.1188 35.9733 1
      vertex -15.8188 34.8802 1
      vertex 10.4978 42.9916 1
    endloop
  endfacet
  facet normal 0 0 1
    outer loop
      vertex -16.2501 37.2501 1
      vertex 6.30964 43.8727 1
      vertex 3.66127 44.1363 1
    endloop
  endfacet
  facet normal 0 0 1
    outer loop
      vertex -16.2501 37.2501 1
      vertex -16.1188 35.9733 1
      vertex 6.30964 43.8727 1
    endloop
  endfacet
  facet normal 0 0 1
    outer loop
      vertex -15.8188 34.8802 1
      vertex -15.4085 33.9345 1
      vertex 14.0826 41.2841 1
    endloop
  endfacet
  facet normal 0 0 1
    outer loop
      vertex -16.1197 38.482 1
      vertex 0 44.25 1
      vertex -1.46812 44.2362 1
    endloop
  endfacet
  facet normal 0 0 1
    outer loop
      vertex -16.1197 38.482 1
      vertex 1.46219 44.2351 1
      vertex 0 44.25 1
    endloop
  endfacet
  facet normal 0 0 1
    outer loop
      vertex -15.7009 39.56 1
      vertex -3.68159 44.1405 1
      vertex -6.34802 43.8806 1
    endloop
  endfacet
  facet normal 0 0 1
    outer loop
      vertex -15.0303 40.4948 1
      vertex -15.7009 39.56 1
      vertex -9.17561 43.3746 1
    endloop
  endfacet
  facet normal 0 0 1
    outer loop
      vertex -14.1441 41.2963 1
      vertex -15.0303 40.4948 1
      vertex -10.5582 43.0034 1
    endloop
  endfacet
  facet normal 0 0 1
    outer loop
      vertex -11.8714 42.5403 1
      vertex -14.1441 41.2963 1
      vertex -10.5582 43.0034 1
    endloop
  endfacet
  facet normal 0 0 1
    outer loop
      vertex -10.5582 43.0034 1
      vertex -15.0303 40.4948 1
      vertex -9.17561 43.3746 1
    endloop
  endfacet
  facet normal 0 0 1
    outer loop
      vertex -9.17561 43.3746 1
      vertex -15.7009 39.56 1
      vertex -6.34802 43.8806 1
    endloop
  endfacet
  facet normal 0 0 1
    outer loop
      vertex -3.68159 44.1405 1
      vertex -16.1197 38.482 1
      vertex -1.46812 44.2362 1
    endloop
  endfacet
  facet normal 0 0 1
    outer loop
      vertex 1.46219 44.2351 1
      vertex -16.2501 37.2501 1
      vertex 3.66127 44.1363 1
    endloop
  endfacet
  facet normal 0 0 1
    outer loop
      vertex 6.30964 43.8727 1
      vertex -16.1188 35.9733 1
      vertex 9.12086 43.3636 1
    endloop
  endfacet
  facet normal 0 0 1
    outer loop
      vertex 10.4978 42.9916 1
      vertex -15.8188 34.8802 1
      vertex 11.8076 42.5276 1
    endloop
  endfacet
  facet normal 0 0 1
    outer loop
      vertex 14.0826 41.2841 1
      vertex -15.4085 33.9345 1
      vertex 14.9761 40.484 1
    endloop
  endfacet
  facet normal 0 0 1
    outer loop
      vertex 15.6591 39.5519 1
      vertex -14.9468 33.1003 1
      vertex 16.0957 38.4772 1
    endloop
  endfacet
  facet normal 0 0 1
    outer loop
      vertex 16.1485 36.0142 1
      vertex -14.1012 31.6217 1
      vertex 15.8778 34.9372 1
    endloop
  endfacet
  facet normal 0 0 1
    outer loop
      vertex 15.4926 33.9904 1
      vertex -13.8345 30.9054 1
      vertex 15.047 33.1454 1
    endloop
  endfacet
  facet normal 0 0 1
    outer loop
      vertex 15.047 33.1454 1
      vertex -13.7499 30.1561 1
      vertex 14.1927 31.6468 1
    endloop
  endfacet
  facet normal 0 0 1
    outer loop
      vertex 13.8927 30.9362 1
      vertex -13.817 29.3411 1
      vertex 13.7499 30.2134 1
    endloop
  endfacet
  facet normal 0 0 1
    outer loop
      vertex 13.8692 28.8929 1
      vertex -14.112 28.4151 1
      vertex 14.0612 28.4035 1
    endloop
  endfacet
  facet normal 0 0 1
    outer loop
      vertex -15.7009 39.56 1
      vertex -16.1197 38.482 1
      vertex -3.68159 44.1405 1
    endloop
  endfacet
  facet normal 0 0 1
    outer loop
      vertex -14.4125 27.9119 1
      vertex 15.4401 26.814 1
      vertex 14.8217 27.3621 1
    endloop
  endfacet
  facet normal 0 0 1
    outer loop
      vertex -14.8511 27.383 1
      vertex 18.7641 25.8153 1
      vertex 17.384 25.9736 1
    endloop
  endfacet
  facet normal 0 0 1
    outer loop
      vertex -14.8511 27.383 1
      vertex 17.384 25.9736 1
      vertex 16.2501 26.2499 1
    endloop
  endfacet
  facet normal 0 0 1
    outer loop
      vertex 18.7641 25.8153 1
      vertex -15.4545 26.8287 1
      vertex 39.25 -14.03 1
    endloop
  endfacet
  facet normal 0 0 1
    outer loop
      vertex -15.4545 26.8287 1
      vertex -16.2501 26.2499 1
      vertex 39.25 -14.03 1
    endloop
  endfacet
  facet normal 0 0 1
    outer loop
      vertex -16.2501 26.2499 1
      vertex -17.3742 25.9773 1
      vertex 39.25 -14.03 1
    endloop
  endfacet
  facet normal 0 0 1
    outer loop
      vertex -17.3742 25.9773 1
      vertex -18.7469 25.8215 1
      vertex 39.25 -14.03 1
    endloop
  endfacet
  facet normal 0 0 1
    outer loop
      vertex -18.7469 25.8215 1
      vertex -20.3237 25.7693 1
      vertex 39.25 -14.03 1
    endloop
  endfacet
  facet normal 0 0 1
    outer loop
      vertex -20.3237 25.7693 1
      vertex -22.0605 25.8065 1
      vertex 39.25 -14.03 1
    endloop
  endfacet
  facet normal 0 0 1
    outer loop
      vertex -22.0605 25.8065 1
      vertex -25.8363 26.0955 1
      vertex 39.25 -14.03 1
    endloop
  endfacet
  facet normal 0 0 1
    outer loop
      vertex -25.8363 26.0955 1
      vertex -29.7203 26.5781 1
      vertex 39.25 -14.03 1
    endloop
  endfacet
  facet normal 0 0 1
    outer loop
      vertex -29.7203 26.5781 1
      vertex -33.3581 27.1448 1
      vertex 39.25 -14.03 1
    endloop
  endfacet
  facet normal 0 0 1
    outer loop
      vertex -33.3581 27.1448 1
      vertex -36.3951 27.6855 1
      vertex 39.25 -14.03 1
    endloop
  endfacet
  facet normal 0 0 1
    outer loop
      vertex 16.2501 26.2499 1
      vertex 15.4401 26.814 1
      vertex -14.8511 27.383 1
    endloop
  endfacet
  facet normal 0 0 1
    outer loop
      vertex 14.8217 27.3621 1
      vertex 14.3705 27.8927 1
      vertex -14.4125 27.9119 1
    endloop
  endfacet
  facet normal -0.175293 -0.984516 0
    outer loop
      vertex -36.3951 -14.5945 1
      vertex -36.3951 -14.5945 0
      vertex -33.3581 -15.1352 0
    endloop
  endfacet
  facet normal -0.175293 -0.984516 0
    outer loop
      vertex -33.3581 -15.1352 1
      vertex -36.3951 -14.5945 1
      vertex -33.3581 -15.1352 0
    endloop
  endfacet
  facet normal -0.153923 -0.988083 0
    outer loop
      vertex -33.3581 -15.1352 1
      vertex -33.3581 -15.1352 0
      vertex -29.7203 -15.7019 0
    endloop
  endfacet
  facet normal -0.153923 -0.988083 0
    outer loop
      vertex -29.7203 -15.7019 1
      vertex -33.3581 -15.1352 1
      vertex -29.7203 -15.7019 0
    endloop
  endfacet
  facet normal -0.123307 -0.992369 0
    outer loop
      vertex -29.7203 -15.7019 1
      vertex -29.7203 -15.7019 0
      vertex -25.8363 -16.1845 0
    endloop
  endfacet
  facet normal -0.123307 -0.992369 0
    outer loop
      vertex -25.8363 -16.1845 1
      vertex -29.7203 -15.7019 1
      vertex -25.8363 -16.1845 0
    endloop
  endfacet
  facet normal -0.0763147 -0.997084 0
    outer loop
      vertex -25.8363 -16.1845 1
      vertex -25.8363 -16.1845 0
      vertex -22.0605 -16.4735 0
    endloop
  endfacet
  facet normal -0.0763147 -0.997084 0
    outer loop
      vertex -22.0605 -16.4735 1
      vertex -25.8363 -16.1845 1
      vertex -22.0605 -16.4735 0
    endloop
  endfacet
  facet normal -0.0214445 -0.99977 0
    outer loop
      vertex -22.0605 -16.4735 1
      vertex -22.0605 -16.4735 0
      vertex -20.3237 -16.5107 0
    endloop
  endfacet
  facet normal -0.0214445 -0.99977 0
    outer loop
      vertex -20.3237 -16.5107 1
      vertex -22.0605 -16.4735 1
      vertex -20.3237 -16.5107 0
    endloop
  endfacet
  facet normal 0.0330944 -0.999452 0
    outer loop
      vertex -20.3237 -16.5107 1
      vertex -20.3237 -16.5107 0
      vertex -18.7469 -16.4585 0
    endloop
  endfacet
  facet normal 0.0330944 -0.999452 0
    outer loop
      vertex -18.7469 -16.4585 1
      vertex -20.3237 -16.5107 1
      vertex -18.7469 -16.4585 0
    endloop
  endfacet
  facet normal 0.112763 -0.993622 0
    outer loop
      vertex -18.7469 -16.4585 1
      vertex -18.7469 -16.4585 0
      vertex -17.3742 -16.3027 0
    endloop
  endfacet
  facet normal 0.112763 -0.993622 0
    outer loop
      vertex -17.3742 -16.3027 1
      vertex -18.7469 -16.4585 1
      vertex -17.3742 -16.3027 0
    endloop
  endfacet
  facet normal 0.235698 -0.971826 0
    outer loop
      vertex -17.3742 -16.3027 1
      vertex -17.3742 -16.3027 0
      vertex -16.2501 -16.0301 0
    endloop
  endfacet
  facet normal 0.235698 -0.971826 0
    outer loop
      vertex -16.2501 -16.0301 1
      vertex -17.3742 -16.3027 1
      vertex -16.2501 -16.0301 0
    endloop
  endfacet
  facet normal 0.588325 -0.808624 0
    outer loop
      vertex -16.2501 -16.0301 1
      vertex -16.2501 -16.0301 0
      vertex -15.4545 -15.4513 0
    endloop
  endfacet
  facet normal 0.588325 -0.808624 0
    outer loop
      vertex -15.4545 -15.4513 1
      vertex -16.2501 -16.0301 1
      vertex -15.4545 -15.4513 0
    endloop
  endfacet
  facet normal 0.676504 -0.736439 0
    outer loop
      vertex -15.4545 -15.4513 1
      vertex -15.4545 -15.4513 0
      vertex -14.8511 -14.897 0
    endloop
  endfacet
  facet normal 0.676504 -0.736439 0
    outer loop
      vertex -14.8511 -14.897 1
      vertex -15.4545 -15.4513 1
      vertex -14.8511 -14.897 0
    endloop
  endfacet
  facet normal 0.769768 -0.638324 0
    outer loop
      vertex -14.8511 -14.897 1
      vertex -14.8511 -14.897 0
      vertex -14.4125 -14.3681 0
    endloop
  endfacet
  facet normal 0.769768 -0.638324 0
    outer loop
      vertex -14.4125 -14.3681 1
      vertex -14.8511 -14.897 1
      vertex -14.4125 -14.3681 0
    endloop
  endfacet
  facet normal 0.858511 -0.512795 0
    outer loop
      vertex -14.4125 -14.3681 1
      vertex -14.4125 -14.3681 0
      vertex -14.112 -13.8649 0
    endloop
  endfacet
  facet normal 0.858511 -0.512795 0
    outer loop
      vertex -14.112 -13.8649 1
      vertex -14.4125 -14.3681 1
      vertex -14.112 -13.8649 0
    endloop
  endfacet
  facet normal 0.952838 -0.303479 0
    outer loop
      vertex -14.112 -13.8649 1
      vertex -14.112 -13.8649 0
      vertex -13.817 -12.9389 0
    endloop
  endfacet
  facet normal 0.952838 -0.303479 0
    outer loop
      vertex -13.817 -12.9389 1
      vertex -14.112 -13.8649 1
      vertex -13.817 -12.9389 0
    endloop
  endfacet
  facet normal 0.996621 -0.0821315 0
    outer loop
      vertex -13.817 -12.9389 1
      vertex -13.817 -12.9389 0
      vertex -13.7499 -12.1239 0
    endloop
  endfacet
  facet normal 0.996621 -0.0821315 0
    outer loop
      vertex -13.7499 -12.1239 1
      vertex -13.817 -12.9389 1
      vertex -13.7499 -12.1239 0
    endloop
  endfacet
  facet normal 0.993677 0.11228 0
    outer loop
      vertex -13.7499 -12.1239 0
      vertex -13.8345 -11.3746 0
      vertex -13.8345 -11.3746 1
    endloop
  endfacet
  facet normal 0.993677 0.11228 0
    outer loop
      vertex -13.7499 -12.1239 1
      vertex -13.7499 -12.1239 0
      vertex -13.8345 -11.3746 1
    endloop
  endfacet
  facet normal 0.937146 0.348937 0
    outer loop
      vertex -13.8345 -11.3746 0
      vertex -14.1012 -10.6583 0
      vertex -14.1012 -10.6583 1
    endloop
  endfacet
  facet normal 0.937146 0.348937 0
    outer loop
      vertex -13.8345 -11.3746 1
      vertex -13.8345 -11.3746 0
      vertex -14.1012 -10.6583 1
    endloop
  endfacet
  facet normal 0.86808 0.496424 0
    outer loop
      vertex -14.1012 -10.6583 0
      vertex -14.9468 -9.17974 0
      vertex -14.9468 -9.17974 1
    endloop
  endfacet
  facet normal 0.86808 0.496424 0
    outer loop
      vertex -14.1012 -10.6583 1
      vertex -14.1012 -10.6583 0
      vertex -14.9468 -9.17974 1
    endloop
  endfacet
  facet normal 0.874938 0.484235 0
    outer loop
      vertex -14.9468 -9.17974 0
      vertex -15.4085 -8.34549 0
      vertex -15.4085 -8.34549 1
    endloop
  endfacet
  facet normal 0.874938 0.484235 0
    outer loop
      vertex -14.9468 -9.17974 1
      vertex -14.9468 -9.17974 0
      vertex -15.4085 -8.34549 1
    endloop
  endfacet
  facet normal 0.917366 0.398045 0
    outer loop
      vertex -15.4085 -8.34549 0
      vertex -15.8188 -7.39976 0
      vertex -15.8188 -7.39976 1
    endloop
  endfacet
  facet normal 0.917366 0.398045 0
    outer loop
      vertex -15.4085 -8.34549 1
      vertex -15.4085 -8.34549 0
      vertex -15.8188 -7.39976 1
    endloop
  endfacet
  facet normal 0.964337 0.264676 0
    outer loop
      vertex -15.8188 -7.39976 0
      vertex -16.1188 -6.30672 0
      vertex -16.1188 -6.30672 1
    endloop
  endfacet
  facet normal 0.964337 0.264676 0
    outer loop
      vertex -15.8188 -7.39976 1
      vertex -15.8188 -7.39976 0
      vertex -16.1188 -6.30672 1
    endloop
  endfacet
  facet normal 0.994759 0.102246 0
    outer loop
      vertex -16.1188 -6.30672 0
      vertex -16.2501 -5.02994 0
      vertex -16.2501 -5.02994 1
    endloop
  endfacet
  facet normal 0.994759 0.102246 0
    outer loop
      vertex -16.1188 -6.30672 1
      vertex -16.1188 -6.30672 0
      vertex -16.2501 -5.02994 1
    endloop
  endfacet
  facet normal 0.994445 -0.105254 0
    outer loop
      vertex -16.2501 -5.02994 1
      vertex -16.2501 -5.02994 0
      vertex -16.1197 -3.79804 0
    endloop
  endfacet
  facet normal 0.994445 -0.105254 0
    outer loop
      vertex -16.1197 -3.79804 1
      vertex -16.2501 -5.02994 1
      vertex -16.1197 -3.79804 0
    endloop
  endfacet
  facet normal 0.932133 -0.362117 0
    outer loop
      vertex -16.1197 -3.79804 1
      vertex -16.1197 -3.79804 0
      vertex -15.7009 -2.71996 0
    endloop
  endfacet
  facet normal 0.932133 -0.362117 0
    outer loop
      vertex -15.7009 -2.71996 1
      vertex -16.1197 -3.79804 1
      vertex -15.7009 -2.71996 0
    endloop
  endfacet
  facet normal 0.812538 -0.582908 0
    outer loop
      vertex -15.7009 -2.71996 1
      vertex -15.7009 -2.71996 0
      vertex -15.0303 -1.78524 0
    endloop
  endfacet
  facet normal 0.812538 -0.582908 0
    outer loop
      vertex -15.0303 -1.78524 1
      vertex -15.7009 -2.71996 1
      vertex -15.0303 -1.78524 0
    endloop
  endfacet
  facet normal 0.67079 -0.741648 0
    outer loop
      vertex -15.0303 -1.78524 1
      vertex -15.0303 -1.78524 0
      vertex -14.1441 -0.983724 0
    endloop
  endfacet
  facet normal 0.67079 -0.741648 0
    outer loop
      vertex -14.1441 -0.983724 1
      vertex -15.0303 -1.78524 1
      vertex -14.1441 -0.983724 0
    endloop
  endfacet
  facet normal 0.537251 -0.843422 0
    outer loop
      vertex -14.1441 -0.983724 1
      vertex -14.1441 -0.983724 0
      vertex -13.079 -0.305262 0
    endloop
  endfacet
  facet normal 0.537251 -0.843422 0
    outer loop
      vertex -13.079 -0.305262 1
      vertex -14.1441 -0.983724 1
      vertex -13.079 -0.305262 0
    endloop
  endfacet
  facet normal 0.424125 -0.905604 0
    outer loop
      vertex -13.079 -0.305262 1
      vertex -13.079 -0.305262 0
      vertex -11.8714 0.260311 0
    endloop
  endfacet
  facet normal 0.424125 -0.905604 0
    outer loop
      vertex -11.8714 0.260311 1
      vertex -13.079 -0.305262 1
      vertex -11.8714 0.260311 0
    endloop
  endfacet
  facet normal 0.332597 -0.943069 0
    outer loop
      vertex -11.8714 0.260311 1
      vertex -11.8714 0.260311 0
      vertex -10.5582 0.723438 0
    endloop
  endfacet
  facet normal 0.332597 -0.943069 0
    outer loop
      vertex -10.5582 0.723438 1
      vertex -11.8714 0.260311 1
      vertex -10.5582 0.723438 0
    endloop
  endfacet
  facet normal 0.259245 -0.965812 0
    outer loop
      vertex -10.5582 0.723438 1
      vertex -10.5582 0.723438 0
      vertex -9.17561 1.09456 0
    endloop
  endfacet
  facet normal 0.259245 -0.965812 0
    outer loop
      vertex -9.17561 1.09456 1
      vertex -10.5582 0.723438 1
      vertex -9.17561 1.09456 0
    endloop
  endfacet
  facet normal 0.176161 -0.984361 0
    outer loop
      vertex -9.17561 1.09456 1
      vertex -9.17561 1.09456 0
      vertex -6.34802 1.60058 0
    endloop
  endfacet
  facet normal 0.176161 -0.984361 0
    outer loop
      vertex -6.34802 1.60058 1
      vertex -9.17561 1.09456 1
      vertex -6.34802 1.60058 0
    endloop
  endfacet
  facet normal 0.0970211 -0.995282 0
    outer loop
      vertex -6.34802 1.60058 1
      vertex -6.34802 1.60058 0
      vertex -3.68159 1.86051 0
    endloop
  endfacet
  facet normal 0.0970211 -0.995282 0
    outer loop
      vertex -3.68159 1.86051 1
      vertex -6.34802 1.60058 1
      vertex -3.68159 1.86051 0
    endloop
  endfacet
  facet normal 0.0431829 -0.999067 0
    outer loop
      vertex -3.68159 1.86051 1
      vertex -3.68159 1.86051 0
      vertex -1.46812 1.95618 0
    endloop
  endfacet
  facet normal 0.0431829 -0.999067 0
    outer loop
      vertex -1.46812 1.95618 1
      vertex -3.68159 1.86051 1
      vertex -1.46812 1.95618 0
    endloop
  endfacet
  facet normal 0.00941904 -0.999956 0
    outer loop
      vertex -1.46812 1.95618 1
      vertex -1.46812 1.95618 0
      vertex 0 1.97001 0
    endloop
  endfacet
  facet normal 0.00941904 -0.999956 0
    outer loop
      vertex 0 1.97001 1
      vertex -1.46812 1.95618 1
      vertex 0 1.97001 0
    endloop
  endfacet
  facet normal -0.0102292 -0.999948 0
    outer loop
      vertex 0 1.97001 1
      vertex 0 1.97001 0
      vertex 1.46219 1.95506 0
    endloop
  endfacet
  facet normal -0.0102292 -0.999948 0
    outer loop
      vertex 1.46219 1.95506 1
      vertex 0 1.97001 1
      vertex 1.46219 1.95506 0
    endloop
  endfacet
  facet normal -0.0448726 -0.998993 0
    outer loop
      vertex 1.46219 1.95506 1
      vertex 1.46219 1.95506 0
      vertex 3.66127 1.85628 0
    endloop
  endfacet
  facet normal -0.0448726 -0.998993 0
    outer loop
      vertex 3.66127 1.85628 1
      vertex 1.46219 1.95506 1
      vertex 3.66127 1.85628 0
    endloop
  endfacet
  facet normal -0.0990418 -0.995083 0
    outer loop
      vertex 3.66127 1.85628 1
      vertex 3.66127 1.85628 0
      vertex 6.30964 1.59268 0
    endloop
  endfacet
  facet normal -0.0990418 -0.995083 0
    outer loop
      vertex 6.30964 1.59268 1
      vertex 3.66127 1.85628 1
      vertex 6.30964 1.59268 0
    endloop
  endfacet
  facet normal -0.178207 -0.983993 0
    outer loop
      vertex 6.30964 1.59268 1
      vertex 6.30964 1.59268 0
      vertex 9.12086 1.08355 0
    endloop
  endfacet
  facet normal -0.178207 -0.983993 0
    outer loop
      vertex 9.12086 1.08355 1
      vertex 6.30964 1.59268 1
      vertex 9.12086 1.08355 0
    endloop
  endfacet
  facet normal -0.260789 -0.965396 0
    outer loop
      vertex 9.12086 1.08355 1
      vertex 9.12086 1.08355 0
      vertex 10.4978 0.711584 0
    endloop
  endfacet
  facet normal -0.260789 -0.965396 0
    outer loop
      vertex 10.4978 0.711584 1
      vertex 9.12086 1.08355 1
      vertex 10.4978 0.711584 0
    endloop
  endfacet
  facet normal -0.333904 -0.942607 0
    outer loop
      vertex 10.4978 0.711584 1
      vertex 10.4978 0.711584 0
      vertex 11.8076 0.247611 0
    endloop
  endfacet
  facet normal -0.333904 -0.942607 0
    outer loop
      vertex 11.8076 0.247611 1
      vertex 10.4978 0.711584 1
      vertex 11.8076 0.247611 0
    endloop
  endfacet
  facet normal -0.424542 -0.905408 0
    outer loop
      vertex 11.8076 0.247611 1
      vertex 11.8076 0.247611 0
      vertex 13.0144 -0.318244 0
    endloop
  endfacet
  facet normal -0.424542 -0.905408 0
    outer loop
      vertex 13.0144 -0.318244 1
      vertex 11.8076 0.247611 1
      vertex 13.0144 -0.318244 0
    endloop
  endfacet
  facet normal -0.535662 -0.844432 0
    outer loop
      vertex 13.0144 -0.318244 1
      vertex 13.0144 -0.318244 0
      vertex 14.0826 -0.99586 0
    endloop
  endfacet
  facet normal -0.535662 -0.844432 0
    outer loop
      vertex 14.0826 -0.99586 1
      vertex 13.0144 -0.318244 1
      vertex 14.0826 -0.99586 0
    endloop
  endfacet
  facet normal -0.667091 -0.744977 0
    outer loop
      vertex 14.0826 -0.99586 1
      vertex 14.0826 -0.99586 0
      vertex 14.9761 -1.79596 0
    endloop
  endfacet
  facet normal -0.667091 -0.744977 0
    outer loop
      vertex 14.9761 -1.79596 1
      vertex 14.0826 -0.99586 1
      vertex 14.9761 -1.79596 0
    endloop
  endfacet
  facet normal -0.806661 -0.591014 0
    outer loop
      vertex 14.9761 -1.79596 0
      vertex 15.6591 -2.72814 0
      vertex 14.9761 -1.79596 1
    endloop
  endfacet
  facet normal -0.806661 -0.591014 0
    outer loop
      vertex 14.9761 -1.79596 1
      vertex 15.6591 -2.72814 0
      vertex 15.6591 -2.72814 1
    endloop
  endfacet
  facet normal -0.926467 -0.376377 0
    outer loop
      vertex 15.6591 -2.72814 0
      vertex 16.0957 -3.80284 0
      vertex 15.6591 -2.72814 1
    endloop
  endfacet
  facet normal -0.926467 -0.376377 0
    outer loop
      vertex 15.6591 -2.72814 1
      vertex 16.0957 -3.80284 0
      vertex 16.0957 -3.80284 1
    endloop
  endfacet
  facet normal -0.992179 -0.124821 0
    outer loop
      vertex 16.0957 -3.80284 0
      vertex 16.2501 -5.02994 0
      vertex 16.0957 -3.80284 1
    endloop
  endfacet
  facet normal -0.992179 -0.124821 0
    outer loop
      vertex 16.0957 -3.80284 1
      vertex 16.2501 -5.02994 0
      vertex 16.2501 -5.02994 1
    endloop
  endfacet
  facet normal -0.996638 0.0819341 0
    outer loop
      vertex 16.1485 -6.2658 0
      vertex 16.1485 -6.2658 1
      vertex 16.2501 -5.02994 0
    endloop
  endfacet
  facet normal -0.996638 0.0819341 0
    outer loop
      vertex 16.2501 -5.02994 0
      vertex 16.1485 -6.2658 1
      vertex 16.2501 -5.02994 1
    endloop
  endfacet
  facet normal -0.969843 0.243731 0
    outer loop
      vertex 15.8778 -7.34276 0
      vertex 15.8778 -7.34276 1
      vertex 16.1485 -6.2658 0
    endloop
  endfacet
  facet normal -0.969843 0.243731 0
    outer loop
      vertex 16.1485 -6.2658 0
      vertex 15.8778 -7.34276 1
      vertex 16.1485 -6.2658 1
    endloop
  endfacet
  facet normal -0.926271 0.376858 0
    outer loop
      vertex 15.4926 -8.28961 0
      vertex 15.4926 -8.28961 1
      vertex 15.8778 -7.34276 0
    endloop
  endfacet
  facet normal -0.926271 0.376858 0
    outer loop
      vertex 15.8778 -7.34276 0
      vertex 15.4926 -8.28961 1
      vertex 15.8778 -7.34276 1
    endloop
  endfacet
  facet normal -0.884527 0.466489 0
    outer loop
      vertex 15.047 -9.13458 0
      vertex 15.047 -9.13458 1
      vertex 15.4926 -8.28961 0
    endloop
  endfacet
  facet normal -0.884527 0.466489 0
    outer loop
      vertex 15.4926 -8.28961 0
      vertex 15.047 -9.13458 1
      vertex 15.4926 -8.28961 1
    endloop
  endfacet
  facet normal -0.868756 0.49524 0
    outer loop
      vertex 14.1927 -10.6332 0
      vertex 14.1927 -10.6332 1
      vertex 15.047 -9.13458 0
    endloop
  endfacet
  facet normal -0.868756 0.49524 0
    outer loop
      vertex 15.047 -9.13458 0
      vertex 14.1927 -10.6332 1
      vertex 15.047 -9.13458 1
    endloop
  endfacet
  facet normal -0.92127 0.388924 0
    outer loop
      vertex 13.8927 -11.3438 0
      vertex 13.8927 -11.3438 1
      vertex 14.1927 -10.6332 0
    endloop
  endfacet
  facet normal -0.92127 0.388924 0
    outer loop
      vertex 14.1927 -10.6332 0
      vertex 13.8927 -11.3438 1
      vertex 14.1927 -10.6332 1
    endloop
  endfacet
  facet normal -0.981035 0.193832 0
    outer loop
      vertex 13.7499 -12.0666 0
      vertex 13.7499 -12.0666 1
      vertex 13.8927 -11.3438 0
    endloop
  endfacet
  facet normal -0.981035 0.193832 0
    outer loop
      vertex 13.8927 -11.3438 0
      vertex 13.7499 -12.0666 1
      vertex 13.8927 -11.3438 1
    endloop
  endfacet
  facet normal -0.999725 -0.0234414 0
    outer loop
      vertex 13.7499 -12.0666 0
      vertex 13.7699 -12.9212 0
      vertex 13.7499 -12.0666 1
    endloop
  endfacet
  facet normal -0.999725 -0.0234414 0
    outer loop
      vertex 13.7499 -12.0666 1
      vertex 13.7699 -12.9212 0
      vertex 13.7699 -12.9212 1
    endloop
  endfacet
  facet normal -0.978019 -0.208518 0
    outer loop
      vertex 13.7699 -12.9212 0
      vertex 13.8692 -13.3871 0
      vertex 13.7699 -12.9212 1
    endloop
  endfacet
  facet normal -0.978019 -0.208518 0
    outer loop
      vertex 13.7699 -12.9212 1
      vertex 13.8692 -13.3871 0
      vertex 13.8692 -13.3871 1
    endloop
  endfacet
  facet normal -0.930973 -0.365088 0
    outer loop
      vertex 13.8692 -13.3871 0
      vertex 14.0612 -13.8765 0
      vertex 13.8692 -13.3871 1
    endloop
  endfacet
  facet normal -0.930973 -0.365088 0
    outer loop
      vertex 13.8692 -13.3871 1
      vertex 14.0612 -13.8765 0
      vertex 14.0612 -13.8765 1
    endloop
  endfacet
  facet normal -0.855401 -0.517967 0
    outer loop
      vertex 14.0612 -13.8765 0
      vertex 14.3705 -14.3873 0
      vertex 14.0612 -13.8765 1
    endloop
  endfacet
  facet normal -0.855401 -0.517967 0
    outer loop
      vertex 14.0612 -13.8765 1
      vertex 14.3705 -14.3873 0
      vertex 14.3705 -14.3873 1
    endloop
  endfacet
  facet normal -0.761739 -0.647884 0
    outer loop
      vertex 14.3705 -14.3873 0
      vertex 14.8217 -14.9179 0
      vertex 14.3705 -14.3873 1
    endloop
  endfacet
  facet normal -0.761739 -0.647884 0
    outer loop
      vertex 14.3705 -14.3873 1
      vertex 14.8217 -14.9179 0
      vertex 14.8217 -14.9179 1
    endloop
  endfacet
  facet normal -0.663303 -0.748351 0
    outer loop
      vertex 14.8217 -14.9179 1
      vertex 14.8217 -14.9179 0
      vertex 15.4401 -15.466 0
    endloop
  endfacet
  facet normal -0.663303 -0.748351 0
    outer loop
      vertex 15.4401 -15.466 1
      vertex 14.8217 -14.9179 1
      vertex 15.4401 -15.466 0
    endloop
  endfacet
  facet normal -0.571542 -0.820573 0
    outer loop
      vertex 15.4401 -15.466 1
      vertex 15.4401 -15.466 0
      vertex 16.2501 -16.0301 0
    endloop
  endfacet
  facet normal -0.571542 -0.820573 0
    outer loop
      vertex 16.2501 -16.0301 1
      vertex 15.4401 -15.466 1
      vertex 16.2501 -16.0301 0
    endloop
  endfacet
  facet normal -0.236728 -0.971576 0
    outer loop
      vertex 16.2501 -16.0301 1
      vertex 16.2501 -16.0301 0
      vertex 17.384 -16.3064 0
    endloop
  endfacet
  facet normal -0.236728 -0.971576 0
    outer loop
      vertex 17.384 -16.3064 1
      vertex 16.2501 -16.0301 1
      vertex 17.384 -16.3064 0
    endloop
  endfacet
  facet normal -0.113976 -0.993483 0
    outer loop
      vertex 17.384 -16.3064 1
      vertex 17.384 -16.3064 0
      vertex 18.7641 -16.4647 0
    endloop
  endfacet
  facet normal -0.113976 -0.993483 0
    outer loop
      vertex 18.7641 -16.4647 1
      vertex 17.384 -16.3064 1
      vertex 18.7641 -16.4647 0
    endloop
  endfacet
  facet normal -0.034235 -0.999414 0
    outer loop
      vertex 18.7641 -16.4647 1
      vertex 18.7641 -16.4647 0
      vertex 20.346 -16.5189 0
    endloop
  endfacet
  facet normal -0.034235 -0.999414 0
    outer loop
      vertex 20.346 -16.5189 1
      vertex 18.7641 -16.4647 1
      vertex 20.346 -16.5189 0
    endloop
  endfacet
  facet normal 0.02092 -0.999781 0
    outer loop
      vertex 20.346 -16.5189 1
      vertex 20.346 -16.5189 0
      vertex 22.0859 -16.4825 0
    endloop
  endfacet
  facet normal 0.02092 -0.999781 0
    outer loop
      vertex 22.0859 -16.4825 1
      vertex 20.346 -16.5189 1
      vertex 22.0859 -16.4825 0
    endloop
  endfacet
  facet normal 0.0761438 -0.997097 0
    outer loop
      vertex 22.0859 -16.4825 1
      vertex 22.0859 -16.4825 0
      vertex 25.8628 -16.1941 0
    endloop
  endfacet
  facet normal 0.0761438 -0.997097 0
    outer loop
      vertex 25.8628 -16.1941 1
      vertex 22.0859 -16.4825 1
      vertex 25.8628 -16.1941 0
    endloop
  endfacet
  facet normal 0.123777 -0.99231 0
    outer loop
      vertex 25.8628 -16.1941 1
      vertex 25.8628 -16.1941 0
      vertex 29.7431 -15.7101 0
    endloop
  endfacet
  facet normal 0.123777 -0.99231 0
    outer loop
      vertex 29.7431 -15.7101 1
      vertex 25.8628 -16.1941 1
      vertex 29.7431 -15.7101 0
    endloop
  endfacet
  facet normal 0.15489 -0.987932 0
    outer loop
      vertex 29.7431 -15.7101 1
      vertex 29.7431 -15.7101 0
      vertex 33.3739 -15.1408 0
    endloop
  endfacet
  facet normal 0.15489 -0.987932 0
    outer loop
      vertex 33.3739 -15.1408 1
      vertex 29.7431 -15.7101 1
      vertex 33.3739 -15.1408 0
    endloop
  endfacet
  facet normal 0.176505 -0.9843 0
    outer loop
      vertex 33.3739 -15.1408 1
      vertex 33.3739 -15.1408 0
      vertex 36.4036 -14.5976 0
    endloop
  endfacet
  facet normal 0.176505 -0.9843 0
    outer loop
      vertex 36.4036 -14.5976 1
      vertex 33.3739 -15.1408 1
      vertex 36.4036 -14.5976 0
    endloop
  endfacet
  facet normal 0.195536 -0.980696 0
    outer loop
      vertex 36.4036 -14.5976 1
      vertex 36.4036 -14.5976 0
      vertex 39.25 -14.03 0
    endloop
  endfacet
  facet normal 0.195536 -0.980696 0
    outer loop
      vertex 39.25 -14.03 1
      vertex 36.4036 -14.5976 1
      vertex 39.25 -14.03 0
    endloop
  endfacet
  facet normal 1 0 0
    outer loop
      vertex 39.25 -14.03 1
      vertex 39.25 -14.03 0
      vertex 39.25 28.25 0
    endloop
  endfacet
  facet normal 1 0 0
    outer loop
      vertex 39.25 28.25 1
      vertex 39.25 -14.03 1
      vertex 39.25 28.25 0
    endloop
  endfacet
  facet normal -0.195536 0.980696 0
    outer loop
      vertex 39.25 28.25 1
      vertex 39.25 28.25 0
      vertex 36.4036 27.6824 1
    endloop
  endfacet
  facet normal -0.195536 0.980696 0
    outer loop
      vertex 36.4036 27.6824 1
      vertex 39.25 28.25 0
      vertex 36.4036 27.6824 0
    endloop
  endfacet
  facet normal -0.176505 0.9843 0
    outer loop
      vertex 36.4036 27.6824 1
      vertex 36.4036 27.6824 0
      vertex 33.3739 27.1392 1
    endloop
  endfacet
  facet normal -0.176505 0.9843 0
    outer loop
      vertex 33.3739 27.1392 1
      vertex 36.4036 27.6824 0
      vertex 33.3739 27.1392 0
    endloop
  endfacet
  facet normal -0.15489 0.987932 0
    outer loop
      vertex 33.3739 27.1392 1
      vertex 33.3739 27.1392 0
      vertex 29.7431 26.5699 1
    endloop
  endfacet
  facet normal -0.15489 0.987932 0
    outer loop
      vertex 29.7431 26.5699 1
      vertex 33.3739 27.1392 0
      vertex 29.7431 26.5699 0
    endloop
  endfacet
  facet normal -0.123777 0.99231 0
    outer loop
      vertex 29.7431 26.5699 1
      vertex 29.7431 26.5699 0
      vertex 25.8628 26.0859 1
    endloop
  endfacet
  facet normal -0.123777 0.99231 0
    outer loop
      vertex 25.8628 26.0859 1
      vertex 29.7431 26.5699 0
      vertex 25.8628 26.0859 0
    endloop
  endfacet
  facet normal -0.0761438 0.997097 0
    outer loop
      vertex 25.8628 26.0859 1
      vertex 25.8628 26.0859 0
      vertex 22.0859 25.7975 1
    endloop
  endfacet
  facet normal -0.0761438 0.997097 0
    outer loop
      vertex 22.0859 25.7975 1
      vertex 25.8628 26.0859 0
      vertex 22.0859 25.7975 0
    endloop
  endfacet
  facet normal -0.02092 0.999781 0
    outer loop
      vertex 22.0859 25.7975 1
      vertex 22.0859 25.7975 0
      vertex 20.346 25.7611 1
    endloop
  endfacet
  facet normal -0.02092 0.999781 0
    outer loop
      vertex 20.346 25.7611 1
      vertex 22.0859 25.7975 0
      vertex 20.346 25.7611 0
    endloop
  endfacet
  facet normal 0.034235 0.999414 0
    outer loop
      vertex 20.346 25.7611 1
      vertex 20.346 25.7611 0
      vertex 18.7641 25.8153 1
    endloop
  endfacet
  facet normal 0.034235 0.999414 0
    outer loop
      vertex 18.7641 25.8153 1
      vertex 20.346 25.7611 0
      vertex 18.7641 25.8153 0
    endloop
  endfacet
  facet normal 0.113976 0.993483 0
    outer loop
      vertex 18.7641 25.8153 1
      vertex 18.7641 25.8153 0
      vertex 17.384 25.9736 1
    endloop
  endfacet
  facet normal 0.113976 0.993483 0
    outer loop
      vertex 17.384 25.9736 1
      vertex 18.7641 25.8153 0
      vertex 17.384 25.9736 0
    endloop
  endfacet
  facet normal 0.236728 0.971576 0
    outer loop
      vertex 17.384 25.9736 1
      vertex 17.384 25.9736 0
      vertex 16.2501 26.2499 1
    endloop
  endfacet
  facet normal 0.236728 0.971576 0
    outer loop
      vertex 16.2501 26.2499 1
      vertex 17.384 25.9736 0
      vertex 16.2501 26.2499 0
    endloop
  endfacet
  facet normal 0.571542 0.820573 0
    outer loop
      vertex 16.2501 26.2499 1
      vertex 16.2501 26.2499 0
      vertex 15.4401 26.814 1
    endloop
  endfacet
  facet normal 0.571542 0.820573 0
    outer loop
      vertex 15.4401 26.814 1
      vertex 16.2501 26.2499 0
      vertex 15.4401 26.814 0
    endloop
  endfacet
  facet normal 0.663303 0.748351 0
    outer loop
      vertex 15.4401 26.814 1
      vertex 15.4401 26.814 0
      vertex 14.8217 27.3621 1
    endloop
  endfacet
  facet normal 0.663303 0.748351 0
    outer loop
      vertex 14.8217 27.3621 1
      vertex 15.4401 26.814 0
      vertex 14.8217 27.3621 0
    endloop
  endfacet
  facet normal 0.761739 0.647884 0
    outer loop
      vertex 14.3705 27.8927 1
      vertex 14.8217 27.3621 1
      vertex 14.8217 27.3621 0
    endloop
  endfacet
  facet normal 0.761739 0.647884 0
    outer loop
      vertex 14.3705 27.8927 0
      vertex 14.3705 27.8927 1
      vertex 14.8217 27.3621 0
    endloop
  endfacet
  facet normal 0.855401 0.517967 0
    outer loop
      vertex 14.0612 28.4035 1
      vertex 14.3705 27.8927 1
      vertex 14.3705 27.8927 0
    endloop
  endfacet
  facet normal 0.855401 0.517967 0
    outer loop
      vertex 14.0612 28.4035 0
      vertex 14.0612 28.4035 1
      vertex 14.3705 27.8927 0
    endloop
  endfacet
  facet normal 0.930973 0.365088 0
    outer loop
      vertex 13.8692 28.8929 1
      vertex 14.0612 28.4035 1
      vertex 14.0612 28.4035 0
    endloop
  endfacet
  facet normal 0.930973 0.365088 0
    outer loop
      vertex 13.8692 28.8929 0
      vertex 13.8692 28.8929 1
      vertex 14.0612 28.4035 0
    endloop
  endfacet
  facet normal 0.978019 0.208518 0
    outer loop
      vertex 13.7699 29.3588 1
      vertex 13.8692 28.8929 1
      vertex 13.8692 28.8929 0
    endloop
  endfacet
  facet normal 0.978019 0.208518 0
    outer loop
      vertex 13.7699 29.3588 0
      vertex 13.7699 29.3588 1
      vertex 13.8692 28.8929 0
    endloop
  endfacet
  facet normal 0.999725 0.0234414 0
    outer loop
      vertex 13.7499 30.2134 1
      vertex 13.7699 29.3588 1
      vertex 13.7699 29.3588 0
    endloop
  endfacet
  facet normal 0.999725 0.0234414 0
    outer loop
      vertex 13.7499 30.2134 0
      vertex 13.7499 30.2134 1
      vertex 13.7699 29.3588 0
    endloop
  endfacet
  facet normal 0.981035 -0.193832 0
    outer loop
      vertex 13.8927 30.9362 0
      vertex 13.8927 30.9362 1
      vertex 13.7499 30.2134 1
    endloop
  endfacet
  facet normal 0.981035 -0.193832 0
    outer loop
      vertex 13.7499 30.2134 0
      vertex 13.8927 30.9362 0
      vertex 13.7499 30.2134 1
    endloop
  endfacet
  facet normal 0.92127 -0.388924 0
    outer loop
      vertex 14.1927 31.6468 0
      vertex 14.1927 31.6468 1
      vertex 13.8927 30.9362 1
    endloop
  endfacet
  facet normal 0.92127 -0.388924 0
    outer loop
      vertex 13.8927 30.9362 0
      vertex 14.1927 31.6468 0
      vertex 13.8927 30.9362 1
    endloop
  endfacet
  facet normal 0.868756 -0.49524 0
    outer loop
      vertex 15.047 33.1454 0
      vertex 15.047 33.1454 1
      vertex 14.1927 31.6468 1
    endloop
  endfacet
  facet normal 0.868756 -0.49524 0
    outer loop
      vertex 14.1927 31.6468 0
      vertex 15.047 33.1454 0
      vertex 14.1927 31.6468 1
    endloop
  endfacet
  facet normal 0.884527 -0.466489 0
    outer loop
      vertex 15.4926 33.9904 0
      vertex 15.4926 33.9904 1
      vertex 15.047 33.1454 1
    endloop
  endfacet
  facet normal 0.884527 -0.466489 0
    outer loop
      vertex 15.047 33.1454 0
      vertex 15.4926 33.9904 0
      vertex 15.047 33.1454 1
    endloop
  endfacet
  facet normal 0.926271 -0.376858 0
    outer loop
      vertex 15.8778 34.9372 0
      vertex 15.8778 34.9372 1
      vertex 15.4926 33.9904 1
    endloop
  endfacet
  facet normal 0.926271 -0.376858 0
    outer loop
      vertex 15.4926 33.9904 0
      vertex 15.8778 34.9372 0
      vertex 15.4926 33.9904 1
    endloop
  endfacet
  facet normal 0.969843 -0.243731 0
    outer loop
      vertex 16.1485 36.0142 0
      vertex 16.1485 36.0142 1
      vertex 15.8778 34.9372 1
    endloop
  endfacet
  facet normal 0.969843 -0.243731 0
    outer loop
      vertex 15.8778 34.9372 0
      vertex 16.1485 36.0142 0
      vertex 15.8778 34.9372 1
    endloop
  endfacet
  facet normal 0.996638 -0.0819341 0
    outer loop
      vertex 16.2501 37.2501 0
      vertex 16.2501 37.2501 1
      vertex 16.1485 36.0142 1
    endloop
  endfacet
  facet normal 0.996638 -0.0819341 0
    outer loop
      vertex 16.1485 36.0142 0
      vertex 16.2501 37.2501 0
      vertex 16.1485 36.0142 1
    endloop
  endfacet
  facet normal 0.992179 0.124821 0
    outer loop
      vertex 16.0957 38.4772 1
      vertex 16.2501 37.2501 1
      vertex 16.2501 37.2501 0
    endloop
  endfacet
  facet normal 0.992179 0.124821 0
    outer loop
      vertex 16.0957 38.4772 0
      vertex 16.0957 38.4772 1
      vertex 16.2501 37.2501 0
    endloop
  endfacet
  facet normal 0.926467 0.376377 0
    outer loop
      vertex 15.6591 39.5519 1
      vertex 16.0957 38.4772 1
      vertex 16.0957 38.4772 0
    endloop
  endfacet
  facet normal 0.926467 0.376377 0
    outer loop
      vertex 15.6591 39.5519 0
      vertex 15.6591 39.5519 1
      vertex 16.0957 38.4772 0
    endloop
  endfacet
  facet normal 0.806661 0.591014 0
    outer loop
      vertex 14.9761 40.484 1
      vertex 15.6591 39.5519 1
      vertex 15.6591 39.5519 0
    endloop
  endfacet
  facet normal 0.806661 0.591014 0
    outer loop
      vertex 14.9761 40.484 0
      vertex 14.9761 40.484 1
      vertex 15.6591 39.5519 0
    endloop
  endfacet
  facet normal 0.667091 0.744977 0
    outer loop
      vertex 14.9761 40.484 1
      vertex 14.9761 40.484 0
      vertex 14.0826 41.2841 1
    endloop
  endfacet
  facet normal 0.667091 0.744977 0
    outer loop
      vertex 14.0826 41.2841 1
      vertex 14.9761 40.484 0
      vertex 14.0826 41.2841 0
    endloop
  endfacet
  facet normal 0.535662 0.844432 0
    outer loop
      vertex 14.0826 41.2841 1
      vertex 14.0826 41.2841 0
      vertex 13.0144 41.9618 1
    endloop
  endfacet
  facet normal 0.535662 0.844432 0
    outer loop
      vertex 13.0144 41.9618 1
      vertex 14.0826 41.2841 0
      vertex 13.0144 41.9618 0
    endloop
  endfacet
  facet normal 0.424542 0.905408 0
    outer loop
      vertex 13.0144 41.9618 1
      vertex 13.0144 41.9618 0
      vertex 11.8076 42.5276 1
    endloop
  endfacet
  facet normal 0.424542 0.905408 0
    outer loop
      vertex 11.8076 42.5276 1
      vertex 13.0144 41.9618 0
      vertex 11.8076 42.5276 0
    endloop
  endfacet
  facet normal 0.333904 0.942607 0
    outer loop
      vertex 11.8076 42.5276 1
      vertex 11.8076 42.5276 0
      vertex 10.4978 42.9916 1
    endloop
  endfacet
  facet normal 0.333904 0.942607 0
    outer loop
      vertex 10.4978 42.9916 1
      vertex 11.8076 42.5276 0
      vertex 10.4978 42.9916 0
    endloop
  endfacet
  facet normal 0.260789 0.965396 0
    outer loop
      vertex 10.4978 42.9916 1
      vertex 10.4978 42.9916 0
      vertex 9.12086 43.3636 1
    endloop
  endfacet
  facet normal 0.260789 0.965396 0
    outer loop
      vertex 9.12086 43.3636 1
      vertex 10.4978 42.9916 0
      vertex 9.12086 43.3636 0
    endloop
  endfacet
  facet normal 0.178207 0.983993 0
    outer loop
      vertex 9.12086 43.3636 1
      vertex 9.12086 43.3636 0
      vertex 6.30964 43.8727 1
    endloop
  endfacet
  facet normal 0.178207 0.983993 0
    outer loop
      vertex 6.30964 43.8727 1
      vertex 9.12086 43.3636 0
      vertex 6.30964 43.8727 0
    endloop
  endfacet
  facet normal 0.0990418 0.995083 0
    outer loop
      vertex 6.30964 43.8727 1
      vertex 6.30964 43.8727 0
      vertex 3.66127 44.1363 1
    endloop
  endfacet
  facet normal 0.0990418 0.995083 0
    outer loop
      vertex 3.66127 44.1363 1
      vertex 6.30964 43.8727 0
      vertex 3.66127 44.1363 0
    endloop
  endfacet
  facet normal 0.0448726 0.998993 0
    outer loop
      vertex 3.66127 44.1363 1
      vertex 3.66127 44.1363 0
      vertex 1.46219 44.2351 1
    endloop
  endfacet
  facet normal 0.0448726 0.998993 0
    outer loop
      vertex 1.46219 44.2351 1
      vertex 3.66127 44.1363 0
      vertex 1.46219 44.2351 0
    endloop
  endfacet
  facet normal 0.0102292 0.999948 0
    outer loop
      vertex 1.46219 44.2351 1
      vertex 1.46219 44.2351 0
      vertex 0 44.25 1
    endloop
  endfacet
  facet normal 0.0102292 0.999948 0
    outer loop
      vertex 0 44.25 1
      vertex 1.46219 44.2351 0
      vertex 0 44.25 0
    endloop
  endfacet
  facet normal -0.00941904 0.999956 0
    outer loop
      vertex 0 44.25 1
      vertex 0 44.25 0
      vertex -1.46812 44.2362 1
    endloop
  endfacet
  facet normal -0.00941904 0.999956 0
    outer loop
      vertex -1.46812 44.2362 1
      vertex 0 44.25 0
      vertex -1.46812 44.2362 0
    endloop
  endfacet
  facet normal -0.0431829 0.999067 0
    outer loop
      vertex -1.46812 44.2362 1
      vertex -1.46812 44.2362 0
      vertex -3.68159 44.1405 1
    endloop
  endfacet
  facet normal -0.0431829 0.999067 0
    outer loop
      vertex -3.68159 44.1405 1
      vertex -1.46812 44.2362 0
      vertex -3.68159 44.1405 0
    endloop
  endfacet
  facet normal -0.0970211 0.995282 0
    outer loop
      vertex -3.68159 44.1405 1
      vertex -3.68159 44.1405 0
      vertex -6.34802 43.8806 1
    endloop
  endfacet
  facet normal -0.0970211 0.995282 0
    outer loop
      vertex -6.34802 43.8806 1
      vertex -3.68159 44.1405 0
      vertex -6.34802 43.8806 0
    endloop
  endfacet
  facet normal -0.176161 0.984361 0
    outer loop
      vertex -6.34802 43.8806 1
      vertex -6.34802 43.8806 0
      vertex -9.17561 43.3746 1
    endloop
  endfacet
  facet normal -0.176161 0.984361 0
    outer loop
      vertex -9.17561 43.3746 1
      vertex -6.34802 43.8806 0
      vertex -9.17561 43.3746 0
    endloop
  endfacet
  facet normal -0.259245 0.965812 0
    outer loop
      vertex -9.17561 43.3746 1
      vertex -9.17561 43.3746 0
      vertex -10.5582 43.0034 1
    endloop
  endfacet
  facet normal -0.259245 0.965812 0
    outer loop
      vertex -10.5582 43.0034 1
      vertex -9.17561 43.3746 0
      vertex -10.5582 43.0034 0
    endloop
  endfacet
  facet normal -0.332597 0.943069 0
    outer loop
      vertex -10.5582 43.0034 1
      vertex -10.5582 43.0034 0
      vertex -11.8714 42.5403 1
    endloop
  endfacet
  facet normal -0.332597 0.943069 0
    outer loop
      vertex -11.8714 42.5403 1
      vertex -10.5582 43.0034 0
      vertex -11.8714 42.5403 0
    endloop
  endfacet
  facet normal -0.424125 0.905604 0
    outer loop
      vertex -11.8714 42.5403 1
      vertex -11.8714 42.5403 0
      vertex -13.079 41.9747 1
    endloop
  endfacet
  facet normal -0.424125 0.905604 0
    outer loop
      vertex -13.079 41.9747 1
      vertex -11.8714 42.5403 0
      vertex -13.079 41.9747 0
    endloop
  endfacet
  facet normal -0.537251 0.843422 0
    outer loop
      vertex -13.079 41.9747 1
      vertex -13.079 41.9747 0
      vertex -14.1441 41.2963 1
    endloop
  endfacet
  facet normal -0.537251 0.843422 0
    outer loop
      vertex -14.1441 41.2963 1
      vertex -13.079 41.9747 0
      vertex -14.1441 41.2963 0
    endloop
  endfacet
  facet normal -0.67079 0.741648 0
    outer loop
      vertex -14.1441 41.2963 1
      vertex -14.1441 41.2963 0
      vertex -15.0303 40.4948 1
    endloop
  endfacet
  facet normal -0.67079 0.741648 0
    outer loop
      vertex -15.0303 40.4948 1
      vertex -14.1441 41.2963 0
      vertex -15.0303 40.4948 0
    endloop
  endfacet
  facet normal -0.812538 0.582908 0
    outer loop
      vertex -15.0303 40.4948 1
      vertex -15.0303 40.4948 0
      vertex -15.7009 39.56 1
    endloop
  endfacet
  facet normal -0.812538 0.582908 0
    outer loop
      vertex -15.7009 39.56 1
      vertex -15.0303 40.4948 0
      vertex -15.7009 39.56 0
    endloop
  endfacet
  facet normal -0.932133 0.362117 0
    outer loop
      vertex -15.7009 39.56 1
      vertex -15.7009 39.56 0
      vertex -16.1197 38.482 1
    endloop
  endfacet
  facet normal -0.932133 0.362117 0
    outer loop
      vertex -16.1197 38.482 1
      vertex -15.7009 39.56 0
      vertex -16.1197 38.482 0
    endloop
  endfacet
  facet normal -0.994445 0.105254 0
    outer loop
      vertex -16.1197 38.482 1
      vertex -16.1197 38.482 0
      vertex -16.2501 37.2501 1
    endloop
  endfacet
  facet normal -0.994445 0.105254 0
    outer loop
      vertex -16.2501 37.2501 1
      vertex -16.1197 38.482 0
      vertex -16.2501 37.2501 0
    endloop
  endfacet
  facet normal -0.994759 -0.102246 0
    outer loop
      vertex -16.1188 35.9733 1
      vertex -16.2501 37.2501 1
      vertex -16.1188 35.9733 0
    endloop
  endfacet
  facet normal -0.994759 -0.102246 0
    outer loop
      vertex -16.1188 35.9733 0
      vertex -16.2501 37.2501 1
      vertex -16.2501 37.2501 0
    endloop
  endfacet
  facet normal -0.964337 -0.264676 0
    outer loop
      vertex -15.8188 34.8802 1
      vertex -16.1188 35.9733 1
      vertex -15.8188 34.8802 0
    endloop
  endfacet
  facet normal -0.964337 -0.264676 0
    outer loop
      vertex -15.8188 34.8802 0
      vertex -16.1188 35.9733 1
      vertex -16.1188 35.9733 0
    endloop
  endfacet
  facet normal -0.917366 -0.398045 0
    outer loop
      vertex -15.4085 33.9345 1
      vertex -15.8188 34.8802 1
      vertex -15.4085 33.9345 0
    endloop
  endfacet
  facet normal -0.917366 -0.398045 0
    outer loop
      vertex -15.4085 33.9345 0
      vertex -15.8188 34.8802 1
      vertex -15.8188 34.8802 0
    endloop
  endfacet
  facet normal -0.874938 -0.484235 0
    outer loop
      vertex -14.9468 33.1003 1
      vertex -15.4085 33.9345 1
      vertex -14.9468 33.1003 0
    endloop
  endfacet
  facet normal -0.874938 -0.484235 0
    outer loop
      vertex -14.9468 33.1003 0
      vertex -15.4085 33.9345 1
      vertex -15.4085 33.9345 0
    endloop
  endfacet
  facet normal -0.86808 -0.496424 0
    outer loop
      vertex -14.1012 31.6217 1
      vertex -14.9468 33.1003 1
      vertex -14.1012 31.6217 0
    endloop
  endfacet
  facet normal -0.86808 -0.496424 0
    outer loop
      vertex -14.1012 31.6217 0
      vertex -14.9468 33.1003 1
      vertex -14.9468 33.1003 0
    endloop
  endfacet
  facet normal -0.937146 -0.348937 0
    outer loop
      vertex -13.8345 30.9054 1
      vertex -14.1012 31.6217 1
      vertex -13.8345 30.9054 0
    endloop
  endfacet
  facet normal -0.937146 -0.348937 0
    outer loop
      vertex -13.8345 30.9054 0
      vertex -14.1012 31.6217 1
      vertex -14.1012 31.6217 0
    endloop
  endfacet
  facet normal -0.993677 -0.11228 0
    outer loop
      vertex -13.7499 30.1561 1
      vertex -13.8345 30.9054 1
      vertex -13.7499 30.1561 0
    endloop
  endfacet
  facet normal -0.993677 -0.11228 0
    outer loop
      vertex -13.7499 30.1561 0
      vertex -13.8345 30.9054 1
      vertex -13.8345 30.9054 0
    endloop
  endfacet
  facet normal -0.996621 0.0821315 0
    outer loop
      vertex -13.7499 30.1561 1
      vertex -13.7499 30.1561 0
      vertex -13.817 29.3411 1
    endloop
  endfacet
  facet normal -0.996621 0.0821315 0
    outer loop
      vertex -13.817 29.3411 1
      vertex -13.7499 30.1561 0
      vertex -13.817 29.3411 0
    endloop
  endfacet
  facet normal -0.952838 0.303479 0
    outer loop
      vertex -13.817 29.3411 1
      vertex -13.817 29.3411 0
      vertex -14.112 28.4151 1
    endloop
  endfacet
  facet normal -0.952838 0.303479 0
    outer loop
      vertex -14.112 28.4151 1
      vertex -13.817 29.3411 0
      vertex -14.112 28.4151 0
    endloop
  endfacet
  facet normal -0.858511 0.512795 0
    outer loop
      vertex -14.112 28.4151 1
      vertex -14.112 28.4151 0
      vertex -14.4125 27.9119 1
    endloop
  endfacet
  facet normal -0.858511 0.512795 0
    outer loop
      vertex -14.4125 27.9119 1
      vertex -14.112 28.4151 0
      vertex -14.4125 27.9119 0
    endloop
  endfacet
  facet normal -0.769768 0.638324 0
    outer loop
      vertex -14.4125 27.9119 1
      vertex -14.4125 27.9119 0
      vertex -14.8511 27.383 1
    endloop
  endfacet
  facet normal -0.769768 0.638324 0
    outer loop
      vertex -14.8511 27.383 1
      vertex -14.4125 27.9119 0
      vertex -14.8511 27.383 0
    endloop
  endfacet
  facet normal -0.676504 0.736439 0
    outer loop
      vertex -14.8511 27.383 1
      vertex -14.8511 27.383 0
      vertex -15.4545 26.8287 1
    endloop
  endfacet
  facet normal -0.676504 0.736439 0
    outer loop
      vertex -15.4545 26.8287 1
      vertex -14.8511 27.383 0
      vertex -15.4545 26.8287 0
    endloop
  endfacet
  facet normal -0.588325 0.808624 0
    outer loop
      vertex -15.4545 26.8287 1
      vertex -15.4545 26.8287 0
      vertex -16.2501 26.2499 1
    endloop
  endfacet
  facet normal -0.588325 0.808624 0
    outer loop
      vertex -16.2501 26.2499 1
      vertex -15.4545 26.8287 0
      vertex -16.2501 26.2499 0
    endloop
  endfacet
  facet normal -0.235698 0.971826 0
    outer loop
      vertex -16.2501 26.2499 1
      vertex -16.2501 26.2499 0
      vertex -17.3742 25.9773 1
    endloop
  endfacet
  facet normal -0.235698 0.971826 0
    outer loop
      vertex -17.3742 25.9773 1
      vertex -16.2501 26.2499 0
      vertex -17.3742 25.9773 0
    endloop
  endfacet
  facet normal -0.112763 0.993622 0
    outer loop
      vertex -17.3742 25.9773 1
      vertex -17.3742 25.9773 0
      vertex -18.7469 25.8215 1
    endloop
  endfacet
  facet normal -0.112763 0.993622 0
    outer loop
      vertex -18.7469 25.8215 1
      vertex -17.3742 25.9773 0
      vertex -18.7469 25.8215 0
    endloop
  endfacet
  facet normal -0.0330944 0.999452 0
    outer loop
      vertex -18.7469 25.8215 1
      vertex -18.7469 25.8215 0
      vertex -20.3237 25.7693 1
    endloop
  endfacet
  facet normal -0.0330944 0.999452 0
    outer loop
      vertex -20.3237 25.7693 1
      vertex -18.7469 25.8215 0
      vertex -20.3237 25.7693 0
    endloop
  endfacet
  facet normal 0.0214445 0.99977 0
    outer loop
      vertex -20.3237 25.7693 1
      vertex -20.3237 25.7693 0
      vertex -22.0605 25.8065 1
    endloop
  endfacet
  facet normal 0.0214445 0.99977 0
    outer loop
      vertex -22.0605 25.8065 1
      vertex -20.3237 25.7693 0
      vertex -22.0605 25.8065 0
    endloop
  endfacet
  facet normal 0.0763147 0.997084 0
    outer loop
      vertex -22.0605 25.8065 1
      vertex -22.0605 25.8065 0
      vertex -25.8363 26.0955 1
    endloop
  endfacet
  facet normal 0.0763147 0.997084 0
    outer loop
      vertex -25.8363 26.0955 1
      vertex -22.0605 25.8065 0
      vertex -25.8363 26.0955 0
    endloop
  endfacet
  facet normal 0.123307 0.992369 0
    outer loop
      vertex -25.8363 26.0955 1
      vertex -25.8363 26.0955 0
      vertex -29.7203 26.5781 1
    endloop
  endfacet
  facet normal 0.123307 0.992369 0
    outer loop
      vertex -29.7203 26.5781 1
      vertex -25.8363 26.0955 0
      vertex -29.7203 26.5781 0
    endloop
  endfacet
  facet normal 0.153923 0.988083 0
    outer loop
      vertex -29.7203 26.5781 1
      vertex -29.7203 26.5781 0
      vertex -33.3581 27.1448 1
    endloop
  endfacet
  facet normal 0.153923 0.988083 0
    outer loop
      vertex -33.3581 27.1448 1
      vertex -29.7203 26.5781 0
      vertex -33.3581 27.1448 0
    endloop
  endfacet
  facet normal 0.175293 0.984516 0
    outer loop
      vertex -33.3581 27.1448 1
      vertex -33.3581 27.1448 0
      vertex -36.3951 27.6855 1
    endloop
  endfacet
  facet normal 0.175293 0.984516 0
    outer loop
      vertex -36.3951 27.6855 1
      vertex -33.3581 27.1448 0
      vertex -36.3951 27.6855 0
    endloop
  endfacet
endsolid OpenSCAD_Model
